<svg width="422" height="406" viewBox="0 0 422 406" fill="none" xmlns="http://www.w3.org/2000/svg">
<g clip-path="url(#clip0_97_6740)">
<path d="M31.1182 287.094L34.1975 288.263L89.7654 211.526L32.4337 160.369L4.34934 222.06C-7.18845 247.403 5.0867 277.219 31.1214 287.097L31.1182 287.094Z" fill="#84524D"/>
<path d="M261.76 149.787C261.76 149.787 291.459 177.108 307.808 159.421C324.78 141.059 344.601 119.903 354.878 109.953C376.07 89.4439 410.339 62.2463 414.084 67.0894C416.215 69.8472 412.307 74.5247 401.036 86.3256C402.202 86.2996 405.756 87.0922 407.315 89.9734C409.621 94.2383 406.685 97.0481 406.545 97.4184C406.941 97.3761 411.463 97.1488 413.49 99.7441C415.773 102.668 415.299 105.779 413.899 108.333C414.883 108.261 419.099 108.648 420.922 111.236C423.29 114.602 421.406 118.753 418.93 121.079C414.389 125.347 401.686 136.703 395.735 143.563C388.332 152.099 359.309 187.577 338.962 212.523C326.229 228.135 305.781 235.226 286.116 230.853L262.651 225.64L261.767 149.787H261.76Z" fill="#84524D"/>
<path d="M377.765 132.743C377.717 132.743 377.668 132.733 377.619 132.707C377.46 132.626 377.395 132.431 377.473 132.272C380.348 126.542 380.322 121.342 380.302 117.164C380.283 112.99 380.266 109.697 383.528 108.43C385.853 107.527 388.111 105.37 390.235 102.018C390.878 101.008 390.596 99.9747 390.118 99.3445C389.634 98.7078 388.705 98.1524 387.539 98.5032L369.187 104.048C369.014 104.1 368.833 104.002 368.781 103.83C368.729 103.658 368.826 103.476 368.998 103.424L387.351 97.8795C388.572 97.5092 389.862 97.9315 390.635 98.9482C391.411 99.9714 391.47 101.28 390.784 102.362C388.582 105.835 386.22 108.079 383.762 109.031C380.913 110.135 380.929 112.929 380.949 117.158C380.968 121.403 380.994 126.688 378.051 132.561C377.996 132.675 377.879 132.74 377.762 132.74L377.765 132.743Z" fill="#363E44"/>
<path d="M408.601 126.032C408.513 126.032 408.429 126 408.364 125.932C404.807 122.167 404.768 116.232 408.273 112.422L408.796 111.854L405.145 114.433C402.598 116.232 399.136 115.956 396.907 113.777C395.653 112.549 394.965 110.905 394.968 109.151C394.968 107.397 395.666 105.757 396.927 104.532L400.103 101.446C397.93 102.69 395.082 102.21 393.458 100.215C391.775 98.1525 391.911 95.1641 393.773 93.2606L398.681 88.2421C398.807 88.1154 399.012 88.1122 399.139 88.2356C399.265 88.3623 399.269 88.5669 399.145 88.6936L394.237 93.7122C392.606 95.3785 392.49 97.9966 393.961 99.7994C395.523 101.716 398.379 102.034 400.324 100.511L404.135 97.5256C404.271 97.4184 404.466 97.4379 404.58 97.5678C404.693 97.6978 404.687 97.8926 404.56 98.0128L397.375 104.99C396.241 106.091 395.618 107.566 395.614 109.145C395.614 110.723 396.232 112.201 397.359 113.306C399.363 115.268 402.478 115.514 404.768 113.897L410.91 109.554C411.047 109.456 411.232 109.479 411.342 109.606C411.453 109.729 411.45 109.918 411.339 110.041L408.747 112.857C405.47 116.417 405.509 121.962 408.832 125.48C408.955 125.61 408.948 125.815 408.819 125.938C408.757 125.997 408.676 126.026 408.594 126.026L408.601 126.032Z" fill="#363E44"/>
<path d="M60.6576 229.167L4.20947 205.351C4.20947 205.351 30.2962 94.888 139.908 109.658C174.226 114.28 193.128 116.788 240.591 132.145C300.567 151.55 303.214 153.314 303.214 153.314L272.343 235.342L252.058 230.051L272.164 404.943C274.906 403.29 123.709 406.59 37.9718 405.658C37.9718 405.658 53.6024 257.392 60.6576 229.164V229.167Z" fill="#EDB441"/>
<path d="M160.347 279.662C160.311 279.662 160.275 279.655 160.236 279.642C160.067 279.58 159.98 279.395 160.038 279.226L197.39 174.356C197.435 174.226 197.549 174.142 197.698 174.142L279.584 174.857C279.762 174.857 279.908 175.006 279.905 175.185C279.905 175.363 279.759 175.506 279.58 175.506L197.926 174.792L160.652 279.444C160.603 279.577 160.48 279.658 160.347 279.658V279.662Z" fill="white"/>
<path d="M248.387 286.499H166.502L203.851 181.629H285.736L248.387 286.499Z" fill="#E67341"/>
<path d="M45.2999 229.177C73.3161 231.052 139.506 232.198 145.963 232.565C158.034 233.257 222.713 238.64 222.95 248.06C223.064 252.558 210.555 252.084 206.332 251.802C209.629 253.711 223.093 259.679 221.904 264.583C220.511 270.346 203.379 265.694 203.068 265.788C206.615 267.39 220.998 273.191 220.251 276.904C219.28 281.734 204.279 280.347 199.806 279.724C200.19 280.399 214.644 283.917 213.732 289.725C213.059 293.987 199.3 292.697 193.329 292.151C182.604 291.547 57.4939 291.261 34.2494 288.237C25.151 287.055 32.9923 237.948 45.2999 229.174V229.177Z" fill="#84524D"/>
<path d="M61.0346 229.664C61.0346 229.664 61.0249 229.664 61.0216 229.664C48.3209 229.103 36.0133 228.55 32.0082 228.326C31.8296 228.316 31.6931 228.164 31.7029 227.985C31.7126 227.806 31.8653 227.667 32.044 227.68C36.0458 227.904 48.3502 228.453 61.0508 229.018C61.2295 229.025 61.3692 229.177 61.3594 229.356C61.3529 229.531 61.2068 229.668 61.0346 229.668V229.664Z" fill="#363E44"/>
<path d="M206.504 251.688C206.462 251.688 206.416 251.678 206.378 251.662C204.065 250.668 201.668 249.826 199.248 249.16C194.901 247.965 190.39 247.306 185.842 247.205C185.663 247.202 185.52 247.052 185.524 246.874C185.527 246.698 185.673 246.555 185.849 246.555C185.849 246.555 185.852 246.555 185.855 246.555C190.455 246.659 195.018 247.322 199.417 248.533C201.866 249.206 204.292 250.06 206.631 251.064C206.797 251.135 206.871 251.327 206.8 251.489C206.748 251.613 206.628 251.684 206.501 251.684L206.504 251.688Z" fill="#363E44"/>
<path d="M203.324 265.814C203.292 265.814 203.259 265.811 203.23 265.801C202.72 265.645 202.2 265.493 201.684 265.35C197.338 264.154 192.826 263.495 188.278 263.394C188.1 263.391 187.957 263.242 187.96 263.063C187.963 262.888 188.109 262.745 188.285 262.745C188.285 262.745 188.288 262.745 188.291 262.745C192.891 262.849 197.455 263.515 201.853 264.723C202.376 264.866 202.902 265.019 203.418 265.178C203.591 265.23 203.685 265.412 203.633 265.584C203.591 265.723 203.461 265.814 203.321 265.814H203.324Z" fill="#363E44"/>
<path d="M199.524 279.899C199.504 279.899 199.485 279.899 199.465 279.892C196.568 279.356 193.592 279.051 190.627 278.986C190.448 278.983 190.305 278.833 190.308 278.655C190.312 278.479 190.458 278.336 190.633 278.336C190.633 278.336 190.636 278.336 190.64 278.336C193.641 278.405 196.649 278.713 199.582 279.256C199.758 279.288 199.875 279.457 199.842 279.636C199.813 279.792 199.676 279.902 199.524 279.902V279.899Z" fill="#363E44"/>
<path d="M61.0347 229.665C60.9795 229.665 60.921 229.648 60.869 229.619C60.7131 229.528 60.6644 229.33 60.7553 229.174L86.9297 184.93C87.0207 184.774 87.2221 184.725 87.3748 184.816C87.5307 184.907 87.5794 185.105 87.4884 185.261L61.314 229.505C61.2523 229.609 61.1451 229.665 61.0347 229.665Z" fill="#363E44"/>
<path d="M208.34 88.3818C201.444 97.6555 170.523 88.5929 170.523 88.5929L146.207 62.9999C141.189 47.5382 149.653 30.9364 165.115 25.9179C180.577 20.8993 197.179 29.3643 202.197 44.8259C202.197 44.8259 215.359 78.9358 208.336 88.3785L208.34 88.3818Z" fill="#84524D"/>
<path d="M150.722 137.417C161.162 141.634 173.041 136.589 177.257 126.149L201.661 65.7219C202.938 62.5581 201.411 58.959 198.247 57.6825L171.894 47.0379C168.731 45.7614 165.131 47.2881 163.855 50.4519L139.451 110.879C135.235 121.319 140.279 133.198 150.719 137.414L150.722 137.417Z" fill="#84524D"/>
<path d="M201.369 53.2324C201.369 53.2324 211.89 58.9103 212.179 61.2166C212.523 63.9711 204.289 68.392 204.289 68.392C204.289 68.392 201.586 53.1836 201.369 53.2324Z" fill="#84524D"/>
<path d="M173.047 56.8152C173.047 56.8152 176.555 53.148 181.681 51.4849C182.772 51.1308 183.545 60.5247 182.35 60.3656C177.094 59.6705 173.047 56.8152 173.047 56.8152Z" fill="white"/>
<path d="M186.092 60.4467C193.037 59.7743 198.198 54.3822 198.198 54.3822C198.198 54.3822 192.098 50.0783 185.153 50.7507C183.939 50.8676 182.779 51.1372 181.691 51.488C180.31 54.4504 180.651 57.7962 182.347 60.3623C183.546 60.5214 184.803 60.5702 186.092 60.4435V60.4467Z" fill="#363E44"/>
<path d="M202.818 98.9711C207.381 96.0509 211.133 90.4282 212.429 84.1851C214.479 74.3136 209.554 66.6445 208.538 65.1276C204.945 67.2292 198.702 70.1461 190.594 70.3735C186.696 70.4839 175.513 70.799 167.33 62.5127C162.507 57.6306 160.873 51.9332 160.262 49.0032C160.477 51.5531 160.694 54.1062 160.909 56.6561C162.945 61.8663 165.316 70.4287 163.52 80.4073C163.137 82.5284 162.611 84.4839 162.007 86.2607C175.12 101.19 192.806 105.377 202.814 98.9711H202.818Z" fill="#363E44"/>
<path d="M197.656 78.166C197.276 78.166 196.893 78.1172 196.516 78.0165C194.892 77.5813 193.631 76.23 193.3 74.5702C193.264 74.3947 193.378 74.2226 193.557 74.1869C193.732 74.1511 193.904 74.2648 193.937 74.4435C194.219 75.8597 195.294 77.0161 196.681 77.3896C198.12 77.7762 199.663 77.2727 200.615 76.1131C200.729 75.9734 200.933 75.9539 201.073 76.0676C201.213 76.1813 201.232 76.3859 201.119 76.5256C200.255 77.5813 198.975 78.1692 197.656 78.1692V78.166Z" fill="#84524D"/>
<path d="M143.001 29.5494C146.59 14.6106 152.145 9.80323 156.634 8.21808C162.452 6.16518 166.668 9.46541 175.37 8.59488C183.932 7.73734 190.536 3.46913 194.775 0C202.98 7.83803 207.667 18.3396 205.033 26.6129C201.154 38.7906 180.879 47.8273 159.356 38.3066C159.872 44.4231 160.392 50.5396 160.909 56.656C159.788 51.2899 156.335 49.5196 153.516 49.8834C150.209 50.3122 148.244 54.6291 148.292 57.8904C148.465 69.3957 156.433 71.8741 157.134 72.3516C153.71 78.0295 153.1 79.1112 150.589 83.3047C138.2 77.8898 127.104 62.9154 128.559 50.4649C129.517 42.2728 134.175 36.4876 134.175 36.4876C137.287 32.6449 140.851 30.5758 143.001 29.5396V29.5494Z" fill="#363E44"/>
<path d="M157.319 62.1196C157.303 62.1196 157.283 62.1196 157.267 62.1163C157.092 62.0871 156.972 61.9215 156.998 61.7428C157.345 59.6217 156.546 57.611 154.967 56.6268C153.811 55.9057 152.56 55.9544 151.921 56.0519C151.739 56.0778 151.579 55.9544 151.554 55.779C151.528 55.6004 151.651 55.4379 151.826 55.412C152.557 55.3048 153.98 55.2495 155.312 56.0811C157.115 57.205 158.027 59.4723 157.637 61.8532C157.611 62.0124 157.475 62.1261 157.316 62.1261L157.319 62.1196Z" fill="#363E44"/>
</g>
<defs>
<clipPath id="clip0_97_6740">
<rect width="422" height="405.827" fill="white"/>
</clipPath>
</defs>
</svg>
