<svg width="409" height="411" viewBox="0 0 409 411" fill="none" xmlns="http://www.w3.org/2000/svg">
<g clip-path="url(#clip0_97_6600)">
<path d="M90.5832 352.818H19.3813V408.711H90.5832V352.818Z" fill="#F7F1EB"/>
<path d="M293.964 252.89H216.384V408.964H293.964V252.89Z" fill="#E6D0BE"/>
<path d="M81.3812 406.224C81.1099 406.224 80.8879 406.005 80.8879 405.731V356.437C80.8879 356.166 81.1077 355.944 81.3812 355.944C81.6548 355.944 81.8745 356.164 81.8745 356.437V405.731C81.8745 406.002 81.6548 406.224 81.3812 406.224Z" fill="white"/>
<path d="M394.33 180.769H315.049V408.962H394.33V180.769Z" fill="#EEDFD0"/>
<path d="M378.951 403.361C378.679 403.361 378.458 403.141 378.458 402.868V187.126C378.458 186.854 378.677 186.632 378.951 186.632C379.224 186.632 379.444 186.852 379.444 187.126V402.868C379.444 403.139 379.224 403.361 378.951 403.361Z" fill="white"/>
<path d="M278.09 403.558C277.819 403.558 277.597 403.339 277.597 403.065V258.735C277.597 258.464 277.816 258.242 278.09 258.242C278.364 258.242 278.583 258.462 278.583 258.735V403.065C278.583 403.336 278.364 403.558 278.09 403.558Z" fill="white"/>
<path d="M191.453 305.774H113.625V408.962H191.453V305.774Z" fill="#E6D0BE"/>
<path d="M175.576 405.556C175.305 405.556 175.083 405.336 175.083 405.063V309.637C175.083 309.365 175.303 309.143 175.576 309.143C175.85 309.143 176.07 309.363 176.07 309.637V405.063C176.07 405.334 175.85 405.556 175.576 405.556Z" fill="white"/>
<path d="M13.6549 410.314C13.3836 410.314 13.1616 410.094 13.1616 409.821V334.072C13.1616 333.8 13.3814 333.579 13.6549 333.579H97.3993V268.655C97.3993 268.383 97.619 268.161 97.8926 268.161H194.101V231.733C194.101 231.462 194.321 231.24 194.594 231.24H293.473V163.2C293.473 162.928 293.693 162.706 293.967 162.706H408.014V0.493274C408.014 0.221973 408.233 0 408.507 0C408.78 0 409 0.219731 409 0.493274V163.202C409 163.473 408.78 163.695 408.507 163.695H294.458V231.735C294.458 232.007 294.238 232.229 293.964 232.229H195.088V268.657C195.088 268.928 194.868 269.15 194.594 269.15H98.3858V334.074C98.3858 334.345 98.1661 334.567 97.8926 334.567H14.1482V409.823C14.1482 410.094 13.9284 410.316 13.6549 410.316V410.314Z" fill="white"/>
<path d="M204.153 397.993C178.736 397.993 153.435 393.108 129.971 383.581C101.119 371.863 75.0721 353.2 54.6461 329.605C54.4667 329.399 54.4914 329.087 54.6954 328.91C54.9017 328.733 55.2133 328.753 55.3905 328.96C97.4891 377.594 160.754 402.632 224.63 395.94C323.545 385.574 399.26 302.854 400.751 203.525C400.756 203.251 400.998 203.036 401.251 203.038C401.523 203.043 401.74 203.267 401.738 203.538C400.24 303.366 324.144 386.502 224.734 396.919C217.888 397.637 211.014 397.993 204.151 397.993H204.153Z" fill="#363E44"/>
<path d="M406.805 212.357C406.614 212.357 406.431 212.244 406.352 212.056L401.222 200.029L394.872 211.339C394.74 211.576 394.44 211.661 394.2 211.527C393.962 211.392 393.877 211.092 394.011 210.857L400.852 198.673C400.944 198.509 401.126 198.413 401.31 198.422C401.498 198.433 401.664 198.547 401.736 198.72L407.26 211.67C407.368 211.922 407.251 212.211 407 212.318C406.937 212.345 406.872 212.359 406.807 212.359L406.805 212.357Z" fill="#363E44"/>
<path d="M352.169 169.617C354.749 166.235 356.435 160.666 356.435 154.363C356.435 152.327 356.256 150.37 355.933 148.536C358.888 147.114 360.752 145.045 360.752 142.74C360.752 141.103 359.812 139.587 358.209 138.336C374.595 129.657 386.5 103.453 386.5 72.4708C386.5 71.1995 386.478 69.9372 386.44 68.6838H306.285C306.245 69.9372 306.225 71.1995 306.225 72.4708C306.225 103.453 318.13 129.657 334.516 138.336C332.915 139.587 331.973 141.105 331.973 142.74C331.973 145.045 333.837 147.112 336.792 148.536C336.467 150.37 336.29 152.327 336.29 154.363C336.29 160.666 337.976 166.235 340.556 169.617C328.153 170.717 318.794 175.273 318.48 180.769H374.247C373.933 175.273 364.577 170.717 352.171 169.617H352.169Z" fill="#DFA123"/>
<path d="M331.841 126.733C307.975 126.733 288.558 107.316 288.558 83.4506V72.4686C288.558 72.1972 288.778 71.9753 289.052 71.9753H331.841C332.112 71.9753 332.334 72.195 332.334 72.4686V126.24C332.334 126.511 332.114 126.733 331.841 126.733ZM289.543 72.9618V83.4506C289.543 106.608 308.251 125.478 331.345 125.744V72.9618H289.543Z" fill="#DFA123"/>
<path d="M360.534 126.733C360.263 126.733 360.041 126.513 360.041 126.24V72.4686C360.041 72.1972 360.26 71.9753 360.534 71.9753H403.323C403.595 71.9753 403.817 72.195 403.817 72.4686V83.4506C403.817 107.316 384.4 126.733 360.534 126.733ZM361.027 72.9618V125.744C384.124 125.478 402.83 106.608 402.83 83.4506V72.9618H361.027Z" fill="#DFA123"/>
<path d="M358.46 130.372C358.33 130.372 358.2 130.321 358.103 130.22C357.915 130.022 357.922 129.711 358.119 129.522C361.944 125.865 369.092 117.778 374.007 104.724C378.285 93.361 378.39 87.621 378.563 78.1098L378.603 75.9955C378.608 75.7242 378.832 75.5044 379.105 75.5134C379.377 75.5179 379.594 75.7444 379.588 76.0157L379.547 78.1278C379.377 87.4125 379.267 93.5493 374.928 105.072C369.944 118.309 362.684 126.52 358.798 130.235C358.702 130.327 358.581 130.372 358.457 130.372H358.46Z" fill="#F7F1EB"/>
<path d="M355.117 138.569H337.422C337.15 138.569 336.928 138.35 336.928 138.076C336.928 137.803 337.148 137.583 337.422 137.583H355.117C355.388 137.583 355.61 137.803 355.61 138.076C355.61 138.35 355.39 138.569 355.117 138.569Z" fill="#F7F1EB"/>
<path d="M353.816 148.98H338.724C338.453 148.98 338.231 148.76 338.231 148.487C338.231 148.213 338.451 147.993 338.724 147.993H353.816C354.088 147.993 354.31 148.213 354.31 148.487C354.31 148.76 354.09 148.98 353.816 148.98Z" fill="#F7F1EB"/>
<path d="M349.913 170.668H342.195C341.924 170.668 341.702 170.448 341.702 170.175C341.702 169.901 341.922 169.682 342.195 169.682H349.913C350.184 169.682 350.406 169.901 350.406 170.175C350.406 170.448 350.186 170.668 349.913 170.668Z" fill="#F7F1EB"/>
<path d="M335.957 79.3229L335.935 79.3184C332.426 78.6076 329.682 75.8699 328.96 72.3632L328.955 72.3856C328.244 75.8946 325.507 78.639 322 79.361L322.022 79.3655C325.531 80.0762 328.276 82.8139 328.998 86.3206L329.002 86.2982C329.713 82.7892 332.451 80.0448 335.957 79.3229Z" fill="white"/>
<path d="M354.881 108.455H354.872C353.412 108.157 352.271 107.018 351.971 105.56V105.569C351.673 107.029 350.534 108.17 349.076 108.471H349.085C350.545 108.769 351.686 109.908 351.986 111.365V111.356C352.285 109.897 353.424 108.756 354.881 108.455Z" fill="white"/>
<path d="M367.245 84.2174H367.231C365.023 83.7668 363.296 82.0448 362.841 79.8363V79.8497C362.39 82.0582 360.668 83.7847 358.46 84.2399H358.473C360.682 84.6905 362.408 86.4125 362.864 88.621V88.6076C363.314 86.3991 365.036 84.6726 367.245 84.2174Z" fill="white"/>
<path d="M136.157 281.265C134.238 281.502 132.865 283.238 133.078 285.161L134.825 300.879C135.054 302.942 136.865 304.565 139.143 304.751C147.025 305.397 165.208 306.354 179.28 303.074C179.28 303.074 172.877 282.538 152.11 279.296L136.157 281.265Z" fill="white"/>
<path d="M116.254 185.848L133.22 282.653C133.821 286.079 136.606 288.706 140.061 289.085C142.807 289.386 146.265 289.325 149.911 288.17C153.242 287.117 155.455 283.957 155.348 280.464L152.337 183.964L116.254 185.845V185.848Z" fill="#E2A18D"/>
<path d="M44.426 217.431C45.4798 215.807 45.0313 213.639 43.4215 212.567L30.2645 203.801C28.5381 202.65 26.13 202.993 24.5246 204.619C18.9641 210.242 6.53807 223.558 0.00219727 236.449C0.00219727 236.449 19.843 244.747 35.6771 230.922L44.4282 217.433L44.426 217.431Z" fill="white"/>
<path d="M90.24 188.814L64.5607 221.224C63.0382 223.146 60.3499 223.688 58.2019 222.507L42.9575 214.119C40.8163 212.942 38.1862 213.13 36.2356 214.603C32.9261 217.105 27.4598 223.408 31.2983 229.753C31.5898 230.235 31.9665 230.662 32.388 231.036L47.4261 244.33C59.9373 255.388 78.9127 254.713 90.6033 242.789L134.354 198.177L90.2378 188.818L90.24 188.814Z" fill="#E2A18D"/>
<path d="M63.9595 220.37C64.1703 219.238 81.0963 163.39 81.0963 163.39L151.392 154.715C151.392 154.715 166.034 193.464 170.986 216.121L63.9573 220.37H63.9595Z" fill="#363E44"/>
<path d="M157.823 92.3991C157.823 92.3991 182.437 72.7108 190.998 66.7242C199.989 60.4373 214.181 52.4642 215.271 54.4642C215.892 55.6032 214.181 57.092 209.345 60.7624C209.776 60.8207 211.034 61.3229 211.437 62.4731C212.034 64.1772 210.789 65.0359 210.715 65.1637C210.863 65.1727 212.538 65.3543 213.13 66.4283C213.796 67.6368 213.439 68.7512 212.773 69.6077C213.139 69.639 214.666 70.0292 215.182 71.0897C215.852 72.4664 214.917 73.879 213.87 74.5897C211.951 75.8902 206.614 79.3139 204.025 81.4843C198.928 85.7556 182.861 103.357 173.863 107.583C172.991 99.0202 157.823 92.4014 157.823 92.4014V92.3991Z" fill="#E2A18D"/>
<path d="M198.083 76.8207C197.984 76.8207 197.883 76.7916 197.796 76.7288C197.574 76.5696 197.525 76.2624 197.684 76.0405C199.025 74.1772 199.314 72.314 199.547 70.8162C199.796 69.2064 200.014 67.8162 201.538 67.4889C202.354 67.314 203.267 66.6772 204.179 65.6458C204.392 65.4059 204.283 65.1503 204.244 65.0786C204.204 65.0046 204.054 64.7669 203.727 64.8118L196.659 65.7669C196.392 65.8028 196.141 65.6144 196.105 65.3454C196.07 65.0763 196.258 64.8275 196.529 64.7916L203.596 63.8364C204.22 63.7512 204.818 64.0584 205.117 64.6167C205.413 65.1705 205.336 65.8319 204.922 66.3028C203.854 67.5091 202.787 68.2333 201.749 68.4575C200.926 68.6346 200.771 69.397 200.527 70.9709C200.292 72.4866 199.969 74.5651 198.489 76.6189C198.392 76.7535 198.242 76.823 198.088 76.823L198.083 76.8207Z" fill="#363E44"/>
<path d="M209.805 76.1728C209.648 76.1728 209.494 76.0965 209.397 75.9575C208.525 74.675 208.487 73.0472 209.18 71.749C208.016 72.2176 206.671 71.8476 205.915 70.8252C205.467 70.2198 205.285 69.4754 205.406 68.731C205.527 67.9867 205.933 67.3387 206.552 66.9037L206.864 66.6862C206.276 66.5382 205.747 66.1638 205.424 65.6055C204.832 64.5853 205.101 63.2849 206.05 62.5831L208.148 61.0293C208.368 60.8678 208.675 60.9127 208.839 61.1324C209 61.3521 208.956 61.6593 208.736 61.823L206.637 63.3768C206.092 63.7804 205.938 64.527 206.278 65.1122C206.639 65.7333 207.442 65.9575 208.072 65.61L209.648 64.7378C209.877 64.61 210.166 64.6862 210.305 64.9082C210.444 65.1301 210.386 65.4216 210.171 65.5741L207.121 67.7154C206.725 67.9956 206.462 68.4127 206.384 68.8925C206.305 69.3723 206.422 69.8521 206.711 70.2423C207.225 70.9351 208.16 71.1638 208.935 70.7826L211.447 69.5494C211.673 69.4373 211.947 69.5158 212.081 69.7288C212.216 69.9418 212.166 70.2221 211.969 70.379L210.85 71.2624C209.59 72.2579 209.31 74.0763 210.216 75.4037C210.368 75.6279 210.31 75.9351 210.086 76.0898C210 76.1481 209.904 76.175 209.808 76.175L209.805 76.1728Z" fill="#363E44"/>
<path d="M67.1774 95.3454C55.22 77.6122 47.0765 64.8028 44.4083 60.9463C44.1281 60.5427 43.6393 59.8274 42.7738 59.1055C39.5698 56.4306 36.3545 57.9485 31.7021 56.675C26.4218 55.2288 24.2671 51.4261 23.1169 52.2198C22.3164 52.7714 22.7245 54.4351 24.7267 57.249C22.9599 55.2848 20.4487 52.7288 19.368 53.7086C18.1796 54.9059 20.7783 58.2579 22.4487 60.2086C20.4263 57.8476 18.6438 57.1974 18.1774 57.8947C17.442 58.9911 18.5855 61.1862 21.3792 64.2041C18.868 62.6615 18.0294 62.6593 17.7671 63.3768C17.2873 64.6839 19.6303 67.1212 22.0339 68.9575C24.7379 71.0247 27.5518 71.6907 29.3366 72.0673C36.424 85.3543 41.5653 93.6256 46.4689 104.758C49.5944 111.854 66.5115 107.058 67.1796 95.3476L67.1774 95.3454Z" fill="#E2A18D"/>
<path d="M35.695 58.8386C32.9596 54.1638 32.9641 51.8969 33.7174 51.4866C34.9865 50.796 38.9551 53.8319 43.8138 60.1637C41.5179 59.9978 37.9887 59.0068 35.695 58.8409V58.8386Z" fill="#E2A18D"/>
<path d="M36.9418 68.2691C36.7714 68.2691 36.6077 68.1817 36.5158 68.0247C36.0651 67.2512 35.2288 66.1839 33.8095 65.4799C31.7983 64.4844 29.8611 64.8678 29.1211 65.0785C28.8588 65.1525 28.5853 65.0023 28.5113 64.74C28.4373 64.4776 28.5875 64.2041 28.8498 64.1301C29.6996 63.888 31.9261 63.4485 34.2467 64.5965C35.8857 65.4081 36.8476 66.6391 37.3678 67.5292C37.5046 67.7646 37.4261 68.0673 37.1907 68.2041C37.1122 68.249 37.027 68.2714 36.9418 68.2714V68.2691Z" fill="#363E44"/>
<path d="M40.2713 58.4328C40.2264 58.4328 40.1793 58.4261 40.1345 58.4126C39.0538 58.101 37.8856 58.0516 36.6457 57.9978C36.0426 57.9732 35.417 57.9463 34.76 57.8902C34.4887 57.8678 34.2869 57.6279 34.3116 57.3566C34.334 57.0853 34.5695 56.8835 34.8452 56.9081C35.482 56.9619 36.0964 56.9889 36.6883 57.0135C37.9865 57.0696 39.2152 57.1211 40.408 57.4664C40.6704 57.5427 40.8206 57.8162 40.7443 58.0763C40.6816 58.2915 40.4843 58.4328 40.2713 58.4328Z" fill="#363E44"/>
<path d="M29.018 60.166C28.9687 60.166 28.9194 60.1592 28.8678 60.1435C28.2108 59.935 27.5696 59.6637 26.9642 59.3386C26.0853 58.8678 25.2714 58.2781 24.5427 57.5875C24.3454 57.3992 24.3364 57.0875 24.5247 56.8902C24.7131 56.6929 25.0247 56.6839 25.2221 56.8722C25.8857 57.5023 26.6301 58.0404 27.4306 58.4709C27.9821 58.7669 28.5673 59.0135 29.166 59.2041C29.4261 59.287 29.5696 59.5628 29.4866 59.8229C29.4194 60.0337 29.2265 60.166 29.0158 60.166H29.018Z" fill="#363E44"/>
<path d="M26.4868 62.8095C26.4374 62.8095 26.3859 62.8028 26.3365 62.7871C25.6796 62.5786 25.0383 62.3073 24.433 61.9822C23.554 61.5113 22.7401 60.9216 22.0114 60.231C21.8141 60.0427 21.8052 59.731 21.9935 59.5337C22.1818 59.3364 22.4935 59.3275 22.6908 59.5158C23.3545 60.1458 24.0989 60.684 24.8993 61.1145C25.4509 61.4104 26.0361 61.6571 26.6347 61.8476C26.8948 61.9306 27.0383 62.2064 26.9554 62.4665C26.8881 62.6772 26.6953 62.8095 26.4845 62.8095H26.4868Z" fill="#363E44"/>
<path d="M25.5874 67.1704C25.538 67.1704 25.4865 67.1637 25.4371 67.148C24.7802 66.9395 24.1389 66.6682 23.5335 66.3431C22.6546 65.8722 21.8385 65.2826 21.112 64.592C20.9147 64.4036 20.9057 64.092 21.0941 63.8947C21.2824 63.6974 21.5941 63.6884 21.7914 63.8767C22.4551 64.5068 23.1995 65.0449 23.9999 65.4754C24.5515 65.7713 25.1367 66.018 25.7353 66.2086C25.9954 66.2915 26.1389 66.5673 26.056 66.8274C25.9887 67.0382 25.7959 67.1704 25.5851 67.1704H25.5874Z" fill="#363E44"/>
<path d="M146.004 189.877C145.778 189.877 145.572 189.718 145.522 189.487C145.464 189.22 145.635 188.957 145.901 188.901C164.448 184.904 168.556 180.565 169.354 178.336C169.856 176.935 169.188 176.07 169.182 176.063C169.011 175.85 169.047 175.54 169.26 175.37C169.473 175.2 169.783 175.236 169.953 175.449C169.996 175.5 170.966 176.756 170.283 178.668C169.224 181.628 164.17 185.971 146.11 189.866C146.074 189.872 146.04 189.877 146.004 189.877Z" fill="#363E44"/>
<path d="M133.408 164.848L147.626 212.148C147.626 212.148 159.951 197.099 162.673 186.558L154.697 161.655L133.408 164.848Z" fill="white"/>
<path d="M129.22 164.46L129.617 213.312C129.617 213.312 86.3723 209.706 75.0293 188.431L76.4508 173.097L129.22 164.46Z" fill="white"/>
<path d="M66.7107 92.4552L46.186 106.617C47.9865 110.392 51.5694 116.617 58.2174 122.193C67.1233 129.664 76.5224 131.769 80.8654 132.46L71.1928 181.659C71.1928 181.659 138.552 158.917 170.455 174.191L156.242 123.962C167.919 116.527 172.52 113.341 186.675 99.5359C181.13 94.1077 175.193 88.3655 169.65 82.9373C149.318 97.3027 131.191 103.132 120.029 105.751C106.352 108.962 98.9977 108.323 93.9596 107.325C80.3811 104.635 71.1703 96.8543 66.7107 92.4574V92.4552Z" fill="#CCEAE6"/>
<path d="M109.336 152.327C108.292 152.327 107.229 152.202 106.168 151.942C102.588 151.065 99.5651 148.753 97.8746 145.601C97.7468 145.361 97.8365 145.063 98.0764 144.933C98.3163 144.805 98.6167 144.895 98.7445 145.135C100.303 148.04 103.094 150.173 106.404 150.982C111.884 152.323 117.44 149.78 119.617 144.931C119.729 144.682 120.018 144.572 120.269 144.682C120.518 144.794 120.628 145.085 120.518 145.334C118.57 149.675 114.15 152.323 109.339 152.323L109.336 152.327Z" fill="#363E44"/>
<path d="M142.274 148.61C139.372 148.61 136.558 147.653 134.321 145.861C134.108 145.691 134.074 145.381 134.245 145.168C134.415 144.955 134.724 144.922 134.937 145.092C137.511 147.153 140.915 148.014 144.278 147.46C149.845 146.54 153.953 142.016 154.05 136.702C154.054 136.431 154.276 136.209 154.552 136.218C154.823 136.222 155.041 136.446 155.036 136.72C154.931 142.509 150.476 147.435 144.44 148.433C143.718 148.552 142.993 148.61 142.274 148.61Z" fill="#363E44"/>
<path d="M138.933 15.0449L117.534 16.1749L108.067 23.1951L112.839 16.4238L93.1794 17.4619L85.3767 23.6144L89.8386 17.6368L81.3296 18.0852C60.1749 31.3633 76.704 37.1682 76.4686 40.1458C76.2354 43.1234 64.4552 51.2713 65.9484 61.7175C69.0269 83.2399 101.664 81.518 101.664 81.518L102.182 77.37C98.0605 74.6054 89.0224 66.4395 104.493 57.5359C119.964 48.6323 110.722 43.5583 108.413 34.6166C106.101 25.6749 138.933 15.0426 138.933 15.0426V15.0449Z" fill="#84524D"/>
<path d="M124.841 93.4889C122.915 97.2423 111.24 95.8342 111.24 95.8342L100.951 88.0764C98.2175 82.8095 100.269 76.323 105.534 73.5876C110.798 70.8521 117.283 72.9037 120.016 78.1705C120.016 78.1705 126.8 89.6638 124.839 93.4867L124.841 93.4889Z" fill="#E2A18D"/>
<path d="M108.814 113.139L121.267 108.96L115.765 80.2894L102.982 82.7445L108.814 113.139Z" fill="#E2A18D"/>
<path d="M120.224 81.249C120.224 81.249 124.352 82.6615 124.594 83.4754C124.883 84.4463 122.184 86.5337 122.184 86.5337C122.184 86.5337 120.298 81.2198 120.224 81.249Z" fill="#E2A18D"/>
<path d="M111.408 85.3094C111.408 85.3094 112.558 83.6211 114.482 82.6233C114.893 82.4103 115.821 86.0874 115.336 86.1054C113.204 86.1771 111.408 85.3117 111.408 85.3117V85.3094Z" fill="white"/>
<mask id="mask0_97_6600" style="mask-type:luminance" maskUnits="userSpaceOnUse" x="111" y="81" width="11" height="6">
<path d="M111.408 85.3095C111.408 85.3095 113.099 82.8274 115.812 82.1009C118.523 81.3745 121.229 82.6794 121.229 82.6794C121.229 82.6794 119.538 85.1615 116.825 85.8879C114.114 86.6144 111.408 85.3095 111.408 85.3095Z" fill="white"/>
</mask>
<g mask="url(#mask0_97_6600)">
<path d="M114.52 82.4955C115.132 80.5605 117.195 79.4888 119.128 80.1009C121.06 80.713 122.132 82.7758 121.52 84.7107C120.908 86.6457 118.845 87.7152 116.912 87.1054C114.98 86.4933 113.908 84.4305 114.52 82.4955Z" fill="#363E44"/>
</g>
<path d="M119.989 90.074C119.926 90.074 119.861 90.0718 119.798 90.0651C119.047 89.9911 118.388 89.4866 118.121 88.7758C118.025 88.5202 118.155 88.2355 118.408 88.1413C118.664 88.0449 118.948 88.1749 119.042 88.4283C119.179 88.7893 119.513 89.0471 119.892 89.083C120.287 89.1211 120.67 88.9216 120.87 88.574C121.004 88.3386 121.307 88.2557 121.542 88.3924C121.778 88.527 121.861 88.8296 121.724 89.0651C121.365 89.6929 120.697 90.0763 119.986 90.0763L119.989 90.074Z" fill="#363E44"/>
<path d="M116.065 96.7534C113.52 96.7534 111.422 96.5067 111.267 96.4888C110.996 96.4552 110.803 96.2108 110.836 95.9395C110.868 95.6704 111.114 95.4754 111.386 95.509C111.453 95.518 118.117 96.2982 122.045 95.0718C122.305 94.991 122.581 95.1345 122.664 95.3946C122.744 95.6547 122.601 95.9305 122.341 96.0135C120.491 96.5919 118.132 96.7534 116.07 96.7534H116.065Z" fill="#363E44"/>
<path d="M101.653 94.5875C98.3635 93.7198 96.0787 86.7938 97.0563 81.8879C98.3187 75.5628 104.577 70.7736 110.258 70.1749C111.655 70.027 114.924 70.0987 116.343 71.8588C119 75.1548 115.023 83.1077 113.364 85.5718C110.832 89.3296 105.265 95.5427 101.65 94.5897L101.653 94.5875Z" fill="#84524D"/>
<path d="M101.135 95.0875C100.854 95.0875 100.574 95.0808 100.291 95.0673C100.02 95.0539 99.8094 94.8229 99.8229 94.5516C99.8363 94.2803 100.067 94.0673 100.339 94.083C106.57 94.3812 112.231 91.1637 114.769 85.8879C117.641 79.9238 115.076 74.1077 114.534 73.0023C114.413 72.7579 114.513 72.4619 114.758 72.3431C115.002 72.222 115.298 72.3229 115.417 72.5673C115.996 73.7444 118.724 79.9395 115.655 86.3162C113.058 91.7108 107.419 95.0875 101.13 95.0875H101.135Z" fill="#84524D"/>
<path d="M112.538 112.852L119.921 120.897L121.309 110.455L117.39 105.056L117.291 110.668L114.966 106.072L112.538 112.852Z" fill="#E6D0BE"/>
<path d="M102.197 107.957L105.339 102.576L114.966 106.072L113.491 118.415L102.197 107.957Z" fill="white"/>
<path d="M117.39 105.056L121.886 100.753L126.662 103.89L122.693 116.083L117.39 105.056Z" fill="white"/>
<path d="M179.112 42.3946L179.079 42.3879C173.946 41.3475 169.933 37.343 168.879 32.2152L168.872 32.2489C167.832 37.3812 163.828 41.3946 158.7 42.4484L158.733 42.4552C163.866 43.4955 167.879 47.5 168.933 52.6278L168.94 52.5942C169.98 47.4619 173.984 43.4484 179.112 42.3946Z" fill="white"/>
<path d="M229.978 25.1188L229.958 25.1143C226.729 24.4596 224.202 21.9394 223.538 18.713L223.534 18.7332C222.879 21.9619 220.359 24.4888 217.133 25.1524L217.153 25.1569C220.381 25.8116 222.908 28.3318 223.572 31.5583L223.577 31.5381C224.231 28.3094 226.751 25.7825 229.978 25.1188Z" fill="white"/>
<path d="M225.247 116.043L225.197 116.034C217.74 114.52 211.906 108.702 210.375 101.249L210.366 101.298C208.852 108.756 203.034 114.59 195.581 116.121L195.63 116.13C203.088 117.644 208.922 123.462 210.453 130.915L210.462 130.865C211.975 123.408 217.794 117.574 225.247 116.043Z" fill="white"/>
<path d="M53.9262 160.285L53.8881 160.278C48.1123 159.108 43.5966 154.601 42.4083 148.83L42.4016 148.868C41.2312 154.644 36.7244 159.159 30.9531 160.348L30.9912 160.354C36.767 161.525 41.2827 166.031 42.4711 171.803L42.4778 171.765C43.6482 165.989 48.1549 161.473 53.9262 160.285Z" fill="white"/>
</g>
<defs>
<clipPath id="clip0_97_6600">
<rect width="409" height="410.314" fill="white"/>
</clipPath>
</defs>
</svg>
