<svg width="216" height="40" viewBox="0 0 216 40" fill="none" xmlns="http://www.w3.org/2000/svg">
<g clip-path="url(#clip0_96_6243)">
<path d="M2.88691 39.0858L0.961096 39.1837C0.319156 39.1837 0 38.9371 0 38.4439C0 38.2154 0.0906694 38.0014 0.268382 37.8019C0.446094 37.6061 0.750743 37.3413 1.1787 37.0113C1.85691 36.5181 2.41543 36.0176 2.86153 35.5062C3.30762 34.9984 3.61952 34.313 3.79724 33.4607L9.19388 10.1296C9.26642 9.79959 9.29906 9.5566 9.29906 9.38976C9.29906 8.66804 9.08508 8.09138 8.65712 7.66342C8.22916 7.23546 7.62349 6.77486 6.8401 6.28162C6.41214 6.02049 6.08211 5.79563 5.84999 5.61429C5.61788 5.43295 5.50182 5.22622 5.50182 4.99774C5.50182 4.50449 5.83911 4.25787 6.51732 4.25787L8.27993 4.3558C9.56381 4.42108 10.5974 4.45372 11.3808 4.45372H23.2476C29.5546 4.45372 32.7099 6.6588 32.7099 11.0653C32.7099 13.4336 31.9628 15.6024 30.4649 17.579C28.9671 19.5556 26.5081 20.8504 23.0881 21.4778C24.1217 21.9058 24.9486 22.827 25.5724 24.2414C26.1962 25.6559 26.6314 27.3677 26.8817 29.3733C27.2371 32.1043 27.7992 34.1425 28.5645 35.4917C29.3298 36.8408 30.124 37.6315 30.9437 37.86C31.3716 38.0558 31.5856 38.2734 31.5856 38.5019C31.5856 38.8646 31.1758 39.0459 30.3561 39.0459H28.1112C26.5444 39.0459 25.2786 38.7993 24.3175 38.3061C23.3564 37.8128 22.5622 36.9243 21.9384 35.644C21.3146 34.3601 20.8612 32.5214 20.5747 30.1204C20.2193 27.491 19.7007 25.402 19.0261 23.857C18.3479 22.312 17.3324 21.5395 15.9796 21.5395H12.2911L9.67262 33.3301C9.60008 33.6602 9.56744 33.9068 9.56744 34.07C9.56744 34.7953 9.77054 35.3684 10.1804 35.7963C10.5902 36.2243 11.185 36.6849 11.972 37.1781C12.8606 37.6387 13.3066 38.0667 13.3066 38.462C13.3066 38.9553 12.9875 39.2019 12.3456 39.2019L10.5285 39.104C9.24466 39.0387 8.22916 39.006 7.48204 39.006H5.8246C5.1464 39.006 4.16717 39.0387 2.88329 39.104L2.88691 39.0858ZM18.1194 19.8458C21.2203 19.8458 23.4471 18.95 24.7999 17.1583C26.1527 15.3667 26.8309 13.2849 26.8309 10.9166C26.8309 9.37163 26.3485 8.18567 25.3874 7.36602C24.4263 6.54274 22.9829 6.13292 21.0571 6.13292H15.82L12.8787 19.8458H18.1158H18.1194Z" fill="white"/>
<path d="M35.742 38.6905C34.3348 37.9688 33.1851 36.9134 32.2929 35.5316C31.4007 34.1498 30.9583 32.4887 30.9583 30.5484C30.9583 27.7522 31.6002 25.0393 32.8841 22.4099C34.1679 19.7805 35.985 17.6407 38.3351 15.9978C40.6853 14.3548 43.4126 13.5316 46.5135 13.5316C48.8999 13.5316 50.7097 13.9668 51.9392 14.8372C53.1686 15.7076 53.7816 16.8174 53.7816 18.1666C53.7816 20.0416 52.8277 21.7172 50.9237 23.1969C49.016 24.6766 46.7093 25.8844 44.0001 26.8237C41.2909 27.7594 38.7268 28.3941 36.3041 28.7241C36.3041 31.1251 36.9823 33.04 38.3351 34.4726C39.6879 35.9015 41.3997 36.6196 43.467 36.6196C44.9975 36.6196 46.3612 36.1663 47.5544 35.2632C48.7476 34.3601 49.7377 33.3156 50.5211 32.1297L51.2682 32.5721C50.8402 33.5586 50.1258 34.6104 49.1284 35.7311C48.131 36.8481 46.8653 37.802 45.3348 38.5926C43.8007 39.3832 42.0743 39.7749 40.1485 39.7749C38.6144 39.7749 37.1455 39.4122 35.7383 38.6905H35.742ZM42.1577 26.0113C44.0981 25.188 45.7192 24.0891 47.0212 22.7073C48.3233 21.3255 48.9725 19.7152 48.9725 17.8728C48.9725 15.7004 47.9026 14.616 45.7664 14.616C43.9494 14.616 42.3355 15.2253 40.9283 16.4402C39.5211 17.6588 38.4258 19.2691 37.6424 21.2747C36.859 23.2803 36.4129 25.4346 36.3077 27.7376C38.2662 27.4076 40.2174 26.8346 42.1614 26.0113H42.1577Z" fill="white"/>
<path d="M92.472 9.2084C92.5446 8.81308 92.5772 8.55195 92.5772 8.41776C92.5772 7.69603 92.3705 7.11937 91.9643 6.69141C91.5545 6.26345 90.9923 5.82099 90.2815 5.36039C89.8172 5.06299 89.4872 4.8345 89.2914 4.6713C89.0955 4.50809 88.9976 4.30862 88.9976 4.08013C88.9976 3.58689 89.3167 3.34027 89.9587 3.34027L91.6161 3.43819C92.9 3.50348 93.8974 3.53612 94.6082 3.53612H96.6936C97.2267 3.53612 97.6366 3.62679 97.9231 3.80813C98.2096 3.98946 98.4381 4.27598 98.6194 4.6713L108.401 31.2121L113.424 9.2084C113.496 8.81308 113.529 8.55195 113.529 8.41776C113.529 7.72867 113.322 7.17015 112.916 6.74219C112.506 6.31423 111.926 5.87176 111.179 5.41116C110.751 5.15003 110.432 4.91792 110.218 4.72207C110.004 4.52623 109.899 4.31225 109.899 4.08013C109.899 3.58689 110.218 3.34027 110.86 3.34027L112.622 3.43819C113.478 3.50348 114.153 3.53612 114.653 3.53612C115.118 3.53612 115.778 3.50348 116.63 3.43819C117.627 3.37291 118.251 3.34027 118.501 3.34027C119.107 3.34027 119.412 3.58689 119.412 4.08013C119.412 4.30862 119.321 4.53348 119.143 4.74746C118.966 4.96144 118.679 5.21532 118.287 5.51271C117.646 6.00595 117.112 6.50645 116.684 7.01782C116.256 7.5292 115.952 8.21103 115.774 9.06333L109.094 38.0703H107.596C106.207 38.0703 105.224 37.8636 104.654 37.4537C104.085 37.0439 103.621 36.3766 103.265 35.4554L94.3398 11.2321L85.3563 32.3073C85.2838 32.7027 85.2511 32.9674 85.2511 33.098C85.2511 33.8233 85.4542 34.3964 85.8677 34.8243C86.2775 35.2523 86.8397 35.6948 87.5505 36.1554C88.0147 36.4528 88.3448 36.6812 88.5406 36.8444C88.7365 37.0113 88.8344 37.2071 88.8344 37.4356C88.8344 37.9289 88.5297 38.1755 87.9241 38.1755L86.1615 38.0775C85.233 38.0123 84.5403 37.9796 84.0761 37.9796C83.6481 37.9796 83.0062 38.0123 82.1502 38.0775C81.2218 38.1428 79.9597 38.1755 79.6369 38.1755C78.9949 38.1755 78.6758 37.9289 78.6758 37.4356C78.6758 37.2071 78.7665 36.9823 78.9442 36.7683C79.1219 36.5543 79.4084 36.3004 79.8001 36.003C80.442 35.5098 81.1819 34.9513 81.5663 34.4073C82.3751 33.2503 83.8113 29.2173 83.8113 29.2173" fill="white"/>
<path d="M120.242 37.7693C118.799 37.0476 117.649 35.9922 116.793 34.6104C115.937 33.2286 115.509 31.5675 115.509 29.6272C115.509 26.9978 116.14 24.3647 117.406 21.7353C118.672 19.1059 120.445 16.9262 122.727 15.1999C125.008 13.4735 127.626 12.6104 130.586 12.6104C132.261 12.6104 133.81 12.9803 135.235 13.7201C136.661 14.46 137.799 15.5118 138.655 16.8791C139.511 18.2427 139.939 19.8313 139.939 21.641C139.939 24.4373 139.297 27.1646 138.013 29.8303C136.73 32.4923 134.949 34.6648 132.668 36.3404C130.386 38.0159 127.837 38.8573 125.022 38.8573C123.274 38.8573 121.682 38.4947 120.239 37.7729L120.242 37.7693ZM125.508 37.6714C127.434 37.6714 129.07 36.7175 130.426 34.8099C131.779 32.9022 132.794 30.6572 133.473 28.0749C134.151 25.4927 134.488 23.2658 134.488 21.3908C134.488 18.8593 134.115 16.9335 133.364 15.6206C132.617 14.3041 131.565 13.6476 130.209 13.6476C128.283 13.6476 126.625 14.5289 125.236 16.2879C123.847 18.0469 122.795 20.1939 122.081 22.7254C121.367 25.2569 121.011 27.6107 121.011 29.7795C121.011 35.042 122.509 37.6714 125.501 37.6714H125.508Z" fill="white"/>
<path d="M145.151 37.646C144.241 36.8408 143.787 35.6803 143.787 34.1679C143.787 33.642 143.874 32.9348 144.056 32.0462L147.425 19.0225C147.78 17.6733 147.958 16.6868 147.958 16.063C147.958 15.4392 147.744 15.1273 147.316 15.1273C146.961 15.1273 146.442 15.4392 145.767 16.063C145.089 16.6868 144.342 17.5754 143.523 18.7287L142.775 18.3334C143.736 16.7557 144.922 15.4066 146.33 14.2895C147.737 13.1725 149.169 12.614 150.631 12.614C151.592 12.614 152.296 12.8098 152.742 13.2051C153.188 13.6004 153.409 14.2569 153.409 15.1781C153.409 15.704 153.282 16.578 153.036 17.793L149.347 32.2965C149.242 32.8224 149.188 33.283 149.188 33.6783C149.188 35.158 149.884 35.8979 151.273 35.8979C152.521 35.8979 154.008 34.9041 155.737 32.913C157.464 30.9219 158.973 28.6225 160.253 26.0076C161.537 23.3927 162.179 21.2965 162.179 19.7188C162.179 18.8992 162.008 18.2899 161.671 17.8945C161.33 17.4992 160.858 17.1402 160.253 16.8101C159.72 16.4801 159.317 16.1609 159.049 15.849C158.78 15.5371 158.646 15.1019 158.646 14.5434C158.646 14.0175 158.886 13.5642 159.368 13.187C159.85 12.8098 160.391 12.6212 161 12.6212C161.961 12.6212 162.737 13.031 163.325 13.8543C163.912 14.6776 164.206 15.762 164.206 17.1112C164.206 19.4794 163.394 22.4135 161.772 25.917C160.151 29.4204 158.12 32.4524 155.679 35.0166C153.239 37.5807 150.878 38.8646 148.596 38.8646C147.207 38.8646 146.058 38.462 145.147 37.6569L145.151 37.646Z" fill="white"/>
<path d="M168.214 37.6968C167.18 36.9243 166.36 35.8399 165.755 34.4399C165.149 33.0436 164.844 31.4551 164.844 29.678C164.844 26.16 165.475 23.1099 166.741 20.5276C168.007 17.9453 169.61 15.9796 171.55 14.6341C173.49 13.2849 175.427 12.6104 177.349 12.6104C180.45 12.6104 182.354 13.9087 183.069 16.5091H183.337L183.765 14.9315L189.002 13.401L189.376 13.7455L184.403 33.5768H184.349C184.208 34.2006 184.135 34.7591 184.135 35.2523C184.135 36.1409 184.454 36.5834 185.096 36.5834C186.021 36.5834 187.236 35.285 188.73 32.6846L189.586 33.127C188.516 34.9368 187.464 36.3331 186.431 37.3196C185.397 38.3061 184.222 38.8138 182.902 38.8501C181.691 38.8501 180.711 38.5128 179.961 37.8382C179.21 37.1636 178.854 36.1373 178.891 34.7555H178.731C177.875 36.1046 176.834 37.1237 175.605 37.8128C174.375 38.5019 173.066 38.8501 171.677 38.8501C170.393 38.8501 169.236 38.462 168.203 37.6895L168.214 37.6968ZM171.209 34.8606C171.815 36.0103 172.671 36.587 173.773 36.587C174.876 36.587 176.011 35.9704 177.168 34.7373C178.325 33.5042 179.243 31.952 179.921 30.0769L181.419 24.3067C181.669 22.6964 181.792 21.1478 181.792 19.6681C181.792 17.7604 181.506 16.3133 180.936 15.3268C180.367 14.3403 179.42 13.8471 178.104 13.8471C177.143 13.8471 176.036 14.5362 174.789 15.918C173.541 17.2998 172.482 19.2474 171.608 21.7643C170.734 24.2813 170.299 27.1646 170.299 30.4215C170.299 32.2312 170.6 33.7109 171.209 34.8606Z" fill="white"/>
<path d="M197.721 16.1138C197.721 15.5227 197.507 15.2253 197.079 15.2253C196.724 15.2253 196.205 15.5444 195.53 16.1864C194.852 16.8283 194.123 17.7567 193.34 18.9717L192.538 18.5293C193.499 16.8863 194.685 15.4864 196.093 14.3367C197.5 13.187 198.95 12.6104 200.448 12.6104C201.373 12.6104 202.07 12.8062 202.534 13.2015C202.998 13.5968 203.23 14.2859 203.23 15.2724C203.23 16.063 203.103 16.9335 202.857 17.8873L200.238 29.3334H200.506C202.109 25.4201 203.509 22.2975 204.703 19.9618C205.896 17.6262 207.125 15.8273 208.391 14.5616C209.657 13.2958 211.017 12.6611 212.478 12.6611C213.476 12.6611 214.313 12.9404 214.992 13.4989C215.67 14.0574 216.007 14.7828 216.007 15.6677C216.007 16.3931 215.793 16.9661 215.365 17.3941C214.937 17.822 214.404 18.036 213.762 18.036C213.229 18.036 212.79 17.9054 212.453 17.6407C212.112 17.3759 211.767 16.9842 211.412 16.4584C211.126 16.063 210.886 15.7765 210.69 15.5952C210.495 15.4139 210.255 15.3232 209.969 15.3232C207.938 15.3232 204.108 22.5767 198.475 37.0766L198.261 38.0631H192.861L197.191 19.2183C197.547 17.8039 197.725 16.7703 197.725 16.1102L197.721 16.1138Z" fill="white"/>
<path fill-rule="evenodd" clip-rule="evenodd" d="M57.9958 18.6888H72.5029C73.8412 18.6888 74.9401 19.7841 74.9401 21.126V35.6295C74.9401 36.9714 73.8448 38.0667 72.5029 38.0667H57.9958C56.6575 38.0667 55.5623 36.9714 55.5623 35.6295V21.126C55.5623 19.7878 56.6575 18.6888 57.9958 18.6888Z" fill="white"/>
<path fill-rule="evenodd" clip-rule="evenodd" d="M65.4452 26.2833C66.6021 26.2833 67.5414 27.219 67.5414 28.3796C67.5414 29.5402 66.6021 30.4723 65.4452 30.4723C64.2882 30.4723 63.3489 29.5365 63.3489 28.3796C63.3489 27.2227 64.2846 26.2833 65.4452 26.2833Z" fill="#009580"/>
<path fill-rule="evenodd" clip-rule="evenodd" d="M72.3614 0.275683L85.2075 7.01061C86.3934 7.63442 86.854 9.11414 86.2338 10.2965L79.4989 23.1425C78.8751 24.3285 77.3954 24.7891 76.213 24.1689L63.3634 17.434C62.1774 16.8102 61.7168 15.3341 62.337 14.1481L69.0755 1.30206C69.6994 0.116105 71.1754 -0.344496 72.3614 0.275683Z" fill="white"/>
<path fill-rule="evenodd" clip-rule="evenodd" d="M75.5312 10.3689C76.554 10.9057 76.9529 12.1714 76.4162 13.1942C75.8794 14.2169 74.6137 14.6159 73.5873 14.0791C72.5645 13.5423 72.1692 12.2766 72.706 11.2502C73.2427 10.2238 74.5085 9.83215 75.5312 10.3689Z" fill="#009580"/>
</g>
<defs>
<clipPath id="clip0_96_6243">
<rect width="216" height="39.7749" fill="white"/>
</clipPath>
</defs>
</svg>
