<svg width="114" height="141" viewBox="0 0 114 141" fill="none" xmlns="http://www.w3.org/2000/svg">
<path fill-rule="evenodd" clip-rule="evenodd" d="M8.96443 68.8441H62.4036C67.3334 68.8441 71.3814 72.8788 71.3814 77.8219V131.248C71.3814 136.191 67.3467 140.225 62.4036 140.225H8.96443C4.03467 140.225 0 136.191 0 131.248V77.8219C0 72.8921 4.03467 68.8441 8.96443 68.8441Z" fill="white"/>
<path fill-rule="evenodd" clip-rule="evenodd" d="M36.4052 96.8196C40.667 96.8196 44.1271 100.266 44.1271 104.542C44.1271 108.817 40.667 112.25 36.4052 112.25C32.1434 112.25 28.6832 108.803 28.6832 104.542C28.6832 100.28 32.1301 96.8196 36.4052 96.8196Z" fill="#009580"/>
<path fill-rule="evenodd" clip-rule="evenodd" d="M61.8822 1.01653L109.203 25.8257C113.571 28.1236 115.268 33.5744 112.983 37.9296L88.1743 85.25C85.8764 89.6187 80.4256 91.3154 76.0703 89.0309L28.7366 64.2217C24.3679 61.9238 22.6712 56.4864 24.9557 52.1177L49.7782 4.79735C52.0761 0.428701 57.5136 -1.26799 61.8822 1.01653Z" fill="white"/>
<path fill-rule="evenodd" clip-rule="evenodd" d="M73.5588 38.1966C77.3263 40.1738 78.7959 44.8364 76.8186 48.6039C74.8414 52.3713 70.1788 53.8409 66.398 51.8637C62.6305 49.8864 61.1743 45.2238 63.1515 41.443C65.1288 37.6622 69.7914 36.2193 73.5588 38.1966Z" fill="#009580"/>
</svg>
