<svg width="761" height="617" viewBox="0 0 761 617" fill="none" xmlns="http://www.w3.org/2000/svg">
<path d="M432.657 448.966C432.657 448.966 468.58 438.683 492.816 456.193C514.337 471.747 505.799 530.894 505.799 530.894C505.799 530.894 518.312 556.095 516.681 579.314C515.137 601.305 504.348 617.901 495.206 616.956C487.897 616.198 482.275 591.327 482.275 591.327C482.275 591.327 448.732 550.149 442.558 540.754C436.384 531.364 424.403 512.708 424.403 512.708L384.345 496.525L400.951 435.534L432.657 448.961V448.966Z" fill="#BC8271"/>
<path d="M535.367 398.935C518.043 395.683 501.101 393.562 484.903 392.488V357.411H280.556V391.146C265.126 392.25 249.051 394.31 232.626 397.392C133.916 415.919 52.045 472.407 59.7727 513.57C67.5004 554.728 161.895 564.974 260.604 546.447C310.517 537.078 354.038 520.074 383.88 500.231C385.708 501.444 392.79 507.608 392.79 507.608L384.252 572.826C384.252 572.826 691.113 572.826 700.24 506.286C705.871 465.201 634.072 417.467 535.367 398.94V398.935Z" fill="#DFA123"/>
<path d="M385.605 452.596C385.373 452.596 385.156 452.435 385.104 452.193C385.042 451.914 385.213 451.641 385.492 451.573C421.693 443.257 458.829 438.42 495.862 437.202C544.701 435.592 593.736 440.222 641.614 450.964C641.893 451.026 642.069 451.305 642.007 451.579C641.945 451.857 641.671 452.033 641.392 451.971C593.602 441.249 544.649 436.629 495.904 438.235C458.938 439.453 421.869 444.279 385.729 452.585C385.688 452.596 385.652 452.601 385.615 452.601L385.605 452.596Z" fill="#363E44"/>
<path d="M386.338 452.596C386.302 452.596 386.261 452.596 386.225 452.58C350.085 444.28 313.016 439.448 276.05 438.23C227.299 436.624 178.352 441.244 130.561 451.966C130.288 452.028 130.009 451.852 129.947 451.574C129.885 451.295 130.061 451.021 130.339 450.959C178.218 440.222 227.253 435.592 276.091 437.197C313.124 438.415 350.26 443.252 386.462 451.569C386.741 451.63 386.916 451.909 386.849 452.188C386.792 452.425 386.581 452.591 386.348 452.591L386.338 452.596Z" fill="#363E44"/>
<path d="M372.767 442.829C372.767 442.829 343.173 413.322 314.348 421.277C283.912 429.676 280.474 464.861 269.546 480.347C261.937 491.131 244.422 501.14 236.968 521.886C229.508 542.628 233.855 560.489 241.061 561.924C251.499 563.999 261.08 544.507 261.08 544.507C261.08 544.507 310.383 523.141 320.268 517.793C330.154 512.445 349.852 502.885 349.852 502.885L392.796 507.603L407.054 446.019L372.767 442.829Z" fill="#BC8271"/>
<path d="M369.411 468.887C369.261 468.887 369.116 468.825 369.013 468.701C367.397 466.76 363.805 463.379 357.842 462.543C352.551 461.799 348.117 463.487 345.944 464.561C345.691 464.69 345.381 464.582 345.252 464.329C345.123 464.071 345.231 463.766 345.484 463.637C347.766 462.512 352.417 460.736 357.982 461.521C364.285 462.409 368.094 465.991 369.803 468.046C369.984 468.262 369.958 468.593 369.736 468.773C369.638 468.856 369.524 468.892 369.405 468.892L369.411 468.887Z" fill="#363E44"/>
<path d="M202.748 393.639L294.927 293.964L229.451 208.361L156.841 339.06L202.748 393.639Z" fill="#BC8271"/>
<path d="M558.061 393.639L465.882 293.964L531.358 208.361L603.968 339.06L558.061 393.639Z" fill="#BC8271"/>
<path d="M195.898 247.092C195.898 247.092 237.841 143.478 384.904 143.478C531.967 143.478 564.906 241.62 564.906 241.62L505.036 286.618L495.811 393.355L263.976 392.673L252.594 284.935L195.893 247.087L195.898 247.092Z" fill="#009580"/>
<path d="M209.691 354.072C199.285 331.875 179.555 319.862 159.882 334.497C108.576 372.655 63.3458 406.993 37.4786 423.899C23.9022 432.773 8.6121 439.071 2.55695 453.447C-0.127339 459.822 -1.73791 467.276 3.13511 468.773C10.744 471.107 18.4201 452.399 24.5681 454.469C30.7472 456.555 28.352 476.795 21.1612 479.495C15.359 481.674 10.2485 465.475 4.12107 469.527C-0.0705555 472.299 3.84232 482.097 6.83633 487.099C7.78616 488.689 11.7661 495.348 19.9636 496.458C28.6307 497.635 34.5362 491.585 35.1298 490.96C35.8783 495.875 39.2079 499.581 42.7542 500.035C47.4879 500.639 53.4243 495.544 53.1146 487.946C53.321 488.875 54.9368 495.735 58.5038 496.38C62.0037 497.015 67.1864 491.636 69.5094 482.056C71.0322 487.46 73.8352 490.501 75.9156 490.506C81.7539 490.506 87.7419 481.415 91.8819 456.674C104.261 449.235 164.002 416.466 195.046 399.483C210.873 390.826 217.517 371.447 210.115 354.996C209.98 354.691 209.836 354.387 209.697 354.082L209.691 354.072Z" fill="#BC8271"/>
<path d="M41.5665 452.337C38.3247 452.337 35.6456 451.677 33.9369 451.104C33.6685 451.011 33.5188 450.722 33.6117 450.448C33.6995 450.18 33.9937 450.03 34.2673 450.123C37.1839 451.098 43.0584 452.353 49.6452 449.787C55.4732 447.521 58.8389 443.371 60.3308 441.1C60.4856 440.862 60.8057 440.795 61.0431 440.95C61.2806 441.105 61.3477 441.425 61.1928 441.662C59.639 444.037 56.1185 448.373 50.0169 450.747C46.9867 451.924 44.1011 452.332 41.5614 452.332L41.5665 452.337Z" fill="#363E44"/>
<path d="M83.1068 477.368C82.8333 477.368 82.601 477.151 82.5906 476.873C82.2241 468.257 78.9462 462.816 76.7626 462.713C76.7368 462.713 76.711 462.713 76.6852 462.713C74.3829 462.713 71.043 467.746 69.8609 475.107C69.8093 475.427 69.5202 475.649 69.2053 475.623C68.8853 475.598 68.6478 475.329 68.653 475.004C68.8078 466.538 66.4591 460.973 64.1051 460.483C61.2505 459.884 56.0987 465.759 53.3009 475.133C53.208 475.438 52.9034 475.623 52.5937 475.561C52.2839 475.5 52.0775 475.216 52.1136 474.896C53.0015 466.569 50.5185 460.235 47.6484 459.543C44.6285 458.821 38.6095 464.102 36.0543 474.028C35.982 474.307 35.6981 474.472 35.4245 474.4C35.1458 474.328 34.9806 474.049 35.0528 473.77C37.5978 463.9 43.9162 457.587 47.891 458.537C51.1638 459.321 53.3731 464.995 53.3215 471.829C56.5117 463.358 61.297 458.836 64.3168 459.461C67.094 460.039 69.1434 464.866 69.5976 471.421C71.1824 465.619 74.1041 461.541 76.8142 461.675C80.2212 461.841 83.2772 468.639 83.6282 476.826C83.6385 477.11 83.4217 477.353 83.1326 477.363C83.1275 477.363 83.1172 477.363 83.112 477.363L83.1068 477.368Z" fill="#363E44"/>
<path d="M194.153 356.121C192.145 356.121 189.378 355.749 186.56 354.195C182.249 351.826 180.298 348.135 179.519 346.148C179.415 345.884 179.544 345.585 179.813 345.477C180.076 345.373 180.376 345.502 180.484 345.771C181.072 347.268 182.89 350.995 187.066 353.292C190.628 355.249 194.096 355.197 195.852 354.99C196.13 354.959 196.388 355.161 196.425 355.445C196.456 355.729 196.254 355.987 195.97 356.018C195.48 356.074 194.871 356.121 194.164 356.121H194.153Z" fill="#363E44"/>
<path d="M551.113 354.072C561.52 331.875 581.25 319.862 600.922 334.497C652.228 372.655 697.459 406.993 723.326 423.899C736.902 432.773 752.192 439.071 758.248 453.447C760.932 459.822 762.542 467.276 757.669 468.773C750.061 471.107 742.384 452.399 736.236 454.469C730.057 456.555 732.453 476.795 739.643 479.495C745.446 481.674 750.556 465.475 756.683 469.527C760.875 472.299 756.962 482.097 753.968 487.099C753.018 488.689 749.038 495.348 740.841 496.458C732.174 497.635 726.268 491.585 725.675 490.96C724.926 495.875 721.597 499.581 718.05 500.035C713.317 500.639 707.38 495.544 707.69 487.946C707.484 488.875 705.868 495.735 702.301 496.38C698.801 497.015 693.618 491.636 691.295 482.056C689.772 487.46 686.969 490.501 684.889 490.506C679.051 490.506 673.063 481.415 668.923 456.674C656.544 449.235 596.803 416.466 565.758 399.483C549.931 390.826 543.287 371.447 550.69 354.996C550.824 354.691 550.969 354.387 551.108 354.082L551.113 354.072Z" fill="#BC8271"/>
<path d="M719.241 452.337C716.701 452.337 713.816 451.93 710.785 450.753C704.689 448.378 701.168 444.042 699.61 441.667C699.455 441.43 699.522 441.11 699.759 440.955C699.997 440.8 700.317 440.867 700.472 441.105C701.958 443.376 705.329 447.526 711.157 449.792C717.744 452.358 723.624 451.104 726.535 450.128C726.809 450.04 727.098 450.185 727.191 450.453C727.283 450.722 727.134 451.016 726.865 451.109C725.157 451.682 722.478 452.343 719.236 452.343L719.241 452.337Z" fill="#363E44"/>
<path d="M677.702 477.368C677.702 477.368 677.687 477.368 677.682 477.368C677.398 477.358 677.176 477.115 677.186 476.832C677.537 468.644 680.593 461.851 684 461.681C686.746 461.547 689.632 465.625 691.217 471.427C691.671 464.866 693.72 460.044 696.498 459.466C699.512 458.836 704.303 463.364 707.493 471.835C707.446 465 709.656 459.327 712.923 458.542C716.888 457.592 723.217 463.906 725.761 473.776C725.834 474.049 725.669 474.333 725.39 474.405C725.116 474.478 724.832 474.312 724.76 474.034C722.205 464.107 716.191 458.821 713.166 459.549C710.291 460.241 707.813 466.569 708.701 474.901C708.737 475.216 708.525 475.505 708.221 475.567C707.911 475.629 707.606 475.443 707.513 475.138C704.71 465.759 699.574 459.89 696.709 460.488C694.35 460.979 692.007 466.549 692.161 475.009C692.167 475.335 691.929 475.603 691.609 475.629C691.299 475.655 691.005 475.438 690.953 475.113C689.761 467.669 686.333 462.605 684.052 462.718C681.863 462.827 678.59 468.268 678.224 476.878C678.213 477.157 677.981 477.374 677.708 477.374L677.702 477.368Z" fill="#363E44"/>
<path d="M566.656 356.121C565.949 356.121 565.334 356.074 564.849 356.018C564.565 355.987 564.364 355.728 564.395 355.445C564.426 355.161 564.689 354.959 564.968 354.99C566.723 355.197 570.192 355.248 573.754 353.292C577.93 350.995 579.747 347.268 580.336 345.771C580.439 345.507 580.738 345.373 581.007 345.477C581.27 345.58 581.404 345.879 581.301 346.148C580.521 348.135 578.565 351.826 574.26 354.195C571.441 355.744 568.674 356.121 566.666 356.121H566.656Z" fill="#363E44"/>
<path d="M505.041 287.14C505.041 287.14 505.015 287.14 505 287.14C504.716 287.119 504.504 286.871 504.525 286.582L507.803 244.733C507.823 244.449 508.081 244.237 508.36 244.258C508.644 244.279 508.856 244.526 508.835 244.81L505.557 286.659C505.536 286.928 505.309 287.134 505.041 287.134V287.14Z" fill="#363E44"/>
<path d="M250.601 270.745C250.503 270.745 250.4 270.714 250.312 270.657L200.931 237.124C200.694 236.964 200.632 236.644 200.792 236.406C200.952 236.169 201.272 236.107 201.51 236.267L250.89 269.8C251.128 269.96 251.19 270.28 251.03 270.518C250.932 270.662 250.766 270.745 250.601 270.745Z" fill="#363E44"/>
<path d="M506.243 271.88C506.094 271.88 505.939 271.813 505.841 271.684C505.665 271.462 505.701 271.137 505.923 270.956L558.293 229.314C558.515 229.138 558.84 229.174 559.021 229.396C559.196 229.618 559.16 229.943 558.938 230.124L506.569 271.767C506.476 271.844 506.362 271.88 506.249 271.88H506.243Z" fill="#363E44"/>
<path d="M252.598 285.457C252.335 285.457 252.108 285.256 252.082 284.987L248.087 240.015C248.061 239.731 248.273 239.478 248.556 239.457C248.846 239.432 249.093 239.643 249.119 239.927L253.115 284.899C253.14 285.183 252.929 285.436 252.645 285.457C252.629 285.457 252.614 285.457 252.598 285.457Z" fill="#363E44"/>
<path d="M432.347 50.8137C432.347 77.9715 410.33 99.9878 383.172 99.9878C356.015 99.9878 333.998 77.9715 333.998 50.8137C333.998 23.6559 345.463 -0.962185 378.16 0.0289381C383.25 0.183801 392.965 3.65273 397.797 3.84889C425.367 4.96907 432.347 28.7457 432.347 50.8137Z" fill="#363E44"/>
<path d="M354.224 91.2537H414.12V145.549C414.12 162.078 400.698 175.494 384.174 175.494C367.645 175.494 354.229 162.073 354.229 145.549V91.2537H354.224Z" fill="#BC8271"/>
<path d="M423.773 68.6904C423.773 94.8829 405.634 122.516 383.251 122.516C360.868 122.516 342.728 94.8829 342.728 68.6904C342.728 65.7067 342.966 62.785 343.415 59.9561C343.415 59.9561 362.174 56.1207 375.193 47.7529C388.237 39.3645 397.462 27.1716 397.462 27.1716C412.829 33.9082 423.773 48.3517 423.773 68.6904Z" fill="#BC8271"/>
<path d="M383.256 123.032C375.167 123.032 367.207 119.48 360.244 112.764C360.037 112.568 360.032 112.238 360.228 112.036C360.424 111.83 360.755 111.825 360.956 112.021C367.724 118.551 375.436 121.999 383.251 121.999C391.753 121.999 400.028 117.978 407.178 110.369C407.374 110.163 407.699 110.152 407.905 110.348C408.112 110.545 408.122 110.87 407.926 111.076C400.58 118.897 392.047 123.032 383.246 123.032H383.256Z" fill="#363E44"/>
<path d="M346.89 86.7205C352.288 84.2574 353.696 75.7595 350.036 67.74C346.377 59.7205 339.034 55.2161 333.637 57.6793C328.24 60.1424 326.831 68.6403 330.491 76.6598C334.151 84.6793 341.493 89.1836 346.89 86.7205Z" fill="#BC8271"/>
<path d="M337.593 78.9832C337.474 78.9832 337.355 78.9419 337.257 78.8593C335.982 77.7753 334.903 76.3092 334.134 74.6315C333.133 72.4376 332.766 70.1044 333.107 68.0602C333.458 65.9437 334.521 64.3796 336.096 63.6621C337.283 63.1201 338.656 63.1097 340.065 63.6414C340.334 63.7395 340.468 64.0389 340.365 64.3073C340.262 64.5758 339.967 64.71 339.699 64.6067C338.553 64.1783 337.453 64.1731 336.519 64.6016C335.265 65.1746 334.413 66.4651 334.119 68.2305C333.814 70.0734 334.15 72.195 335.069 74.2082C335.771 75.7517 336.757 77.0887 337.918 78.0798C338.135 78.2657 338.161 78.5909 337.975 78.8077C337.872 78.9264 337.727 78.9884 337.582 78.9884L337.593 78.9832Z" fill="#363E44"/>
<path d="M436.755 76.6994C440.414 68.6799 439.006 60.1821 433.609 57.7189C428.211 55.2558 420.869 59.7601 417.209 67.7797C413.549 75.7992 414.958 84.2971 420.355 86.7602C425.753 89.2233 433.095 84.7189 436.755 76.6994Z" fill="#BC8271"/>
<path d="M421.063 86.551C421.012 86.551 420.955 86.5406 420.903 86.5251C420.635 86.4374 420.485 86.1432 420.573 85.8747C422.38 80.3461 423.299 74.5181 423.299 68.5456C423.299 66.0006 423.128 63.4454 422.793 60.9469C422.757 60.663 422.953 60.4049 423.237 60.3688C423.515 60.3327 423.779 60.5288 423.815 60.8127C424.155 63.3525 424.331 65.9542 424.331 68.5456C424.331 74.6265 423.397 80.5681 421.554 86.1948C421.482 86.4116 421.28 86.551 421.063 86.551Z" fill="#363E44"/>
<path d="M345.464 86.3496C345.247 86.3496 345.046 86.2102 344.974 85.9934C343.146 80.4751 342.217 74.6523 342.217 68.6849C342.217 65.727 342.449 62.7588 342.909 59.868C342.955 59.5841 343.213 59.3931 343.497 59.4396C343.776 59.486 343.972 59.7493 343.926 60.0281C343.477 62.8672 343.244 65.7786 343.244 68.6849C343.244 74.5439 344.153 80.2583 345.949 85.6682C346.037 85.9366 345.893 86.2309 345.624 86.3186C345.573 86.3341 345.516 86.3444 345.464 86.3444V86.3496Z" fill="#363E44"/>
<path d="M384.062 91.7234C383.891 91.7234 383.726 91.6408 383.628 91.4859C383.473 91.2433 383.546 90.9284 383.788 90.7736C385.141 89.9115 385.961 88.9204 386.225 87.8157C386.498 86.6542 386.085 85.7147 385.512 84.419C385.068 83.4176 384.568 82.2819 384.273 80.7694C383.897 78.8491 383.969 76.8101 384.485 74.7143C384.552 74.4355 384.836 74.2703 385.11 74.3374C385.388 74.4045 385.554 74.6833 385.486 74.962C385.006 76.9133 384.939 78.7975 385.285 80.5732C385.559 81.967 386.034 83.0511 386.452 84.0009C387.056 85.374 387.577 86.5561 387.221 88.0531C386.896 89.4263 385.925 90.6342 384.335 91.646C384.248 91.7027 384.155 91.7285 384.057 91.7285L384.062 91.7234Z" fill="#363E44"/>
<path d="M381.558 101.077C380.737 101.077 379.937 100.922 379.204 100.618C377.774 100.024 376.597 98.873 375.884 97.3709C375.76 97.1128 375.874 96.803 376.132 96.6843C376.39 96.5604 376.7 96.674 376.819 96.9321C377.423 98.202 378.409 99.1724 379.601 99.668C380.375 99.988 381.253 100.112 382.131 100.019C382.414 99.988 382.667 100.195 382.698 100.478C382.729 100.762 382.523 101.015 382.239 101.046C382.012 101.072 381.785 101.082 381.563 101.082L381.558 101.077Z" fill="#363E44"/>
<path d="M429.081 78.9832C428.936 78.9832 428.791 78.9213 428.688 78.8025C428.502 78.5857 428.528 78.2605 428.745 78.0747C429.906 77.0836 430.892 75.7466 431.594 74.2031C432.513 72.1951 432.849 70.0683 432.544 68.2254C432.25 66.4548 431.398 65.1694 430.144 64.5964C429.21 64.168 428.11 64.1732 426.964 64.6016C426.696 64.6997 426.401 64.5655 426.298 64.3022C426.2 64.0338 426.334 63.7395 426.603 63.6363C428.012 63.1098 429.385 63.1149 430.572 63.6569C432.147 64.3745 433.21 65.9386 433.561 68.055C433.902 70.0992 433.535 72.4325 432.534 74.6264C431.765 76.3041 430.686 77.7701 429.411 78.8542C429.313 78.9368 429.194 78.9781 429.075 78.9781L429.081 78.9832Z" fill="#363E44"/>
<path d="M363.474 77.8113C355.225 77.8113 348.675 70.4089 348.401 70.094C348.215 69.8772 348.236 69.552 348.453 69.3661C348.664 69.1803 348.995 69.201 349.18 69.4178C349.242 69.49 355.7 76.7841 363.479 76.7841C371.259 76.7841 377.711 69.4952 377.778 69.4178C377.969 69.201 378.295 69.1803 378.506 69.3661C378.723 69.552 378.744 69.8772 378.558 70.094C378.284 70.4089 371.734 77.8113 363.485 77.8113H363.474Z" fill="#363E44"/>
<path d="M403.682 77.8113C395.433 77.8113 388.882 70.4089 388.608 70.094C388.422 69.8772 388.443 69.552 388.66 69.3661C388.877 69.1803 389.202 69.201 389.388 69.4178C389.45 69.49 395.907 76.7841 403.687 76.7841C411.466 76.7841 417.919 69.4952 417.986 69.4178C418.177 69.201 418.502 69.1803 418.714 69.3661C418.93 69.552 418.951 69.8772 418.765 70.094C418.492 70.4089 411.941 77.8113 403.692 77.8113H403.682Z" fill="#363E44"/>
</svg>
