<svg width="333" height="457" viewBox="0 0 333 457" fill="none" xmlns="http://www.w3.org/2000/svg">
<path d="M16.2018 220.775C35.9907 252.07 64.3259 269.113 84.5788 259.826C96.6741 254.284 103.54 240.426 104.813 222.625C119.134 233.278 134.114 237.116 146.209 231.573C169.898 220.713 173.541 177.981 154.354 136.121C149.664 125.894 141.864 116.52 132.383 108.055L119.742 138.71C117.61 143.877 111.698 146.341 106.531 144.209C101.364 142.077 98.9001 136.165 101.032 130.998L115.798 95.1823C102.725 86.2346 88.3222 78.6602 75.0104 72.5529L71.0915 82.0586C68.9596 87.2253 63.0468 89.6895 57.8801 87.5576C52.7134 85.4258 50.2492 79.5129 52.3811 74.3462L56.4003 64.6085C39.7027 57.9809 27.7453 54.4946 27.7453 54.4946C27.7453 54.4946 18.6911 74.3337 10.9222 100.857L31.589 107.704C36.8936 109.46 39.7716 115.191 38.0097 120.495C36.254 125.8 30.523 128.678 25.2184 126.916L5.79944 120.483C0.0809758 145.595 -2.82842 173.41 3.81804 195.349L49.7413 210.567C55.046 212.323 57.924 218.054 56.1621 223.359C54.4064 228.663 48.6754 231.541 43.3708 229.779L16.2018 220.775ZM119.968 194.973C117.447 189.474 119.862 182.978 125.361 180.458C130.86 177.937 137.356 180.351 139.876 185.85C142.397 191.349 139.983 197.845 134.484 200.366C128.985 202.886 122.489 200.472 119.968 194.973ZM36.0158 175.755C30.5168 178.276 24.0208 175.862 21.5001 170.363C18.9795 164.864 21.3935 158.368 26.8926 155.847C32.3916 153.326 38.8875 155.74 41.4082 161.239C43.9288 166.738 41.5148 173.234 36.0158 175.755Z" fill="#009580"/>
<path d="M128.207 322.974C127.894 322.974 127.624 322.742 127.587 322.422C117.987 243.9 86.2719 157.477 33.3134 65.5617C33.1379 65.2608 33.2445 64.8783 33.5454 64.7027C33.8464 64.5271 34.2289 64.6337 34.4044 64.9347C56.1246 102.638 73.6813 138.046 88.084 173.184C109.39 225.177 123.097 275.333 128.834 322.266C128.878 322.611 128.634 322.924 128.289 322.962C128.264 322.962 128.239 322.962 128.214 322.962L128.207 322.974Z" fill="#363E44"/>
<path d="M282.424 172.777C276.969 173.987 271.564 170.538 270.354 165.083C269.144 159.628 272.592 154.223 278.048 153.013L325.281 142.56C334.135 121.411 334.078 93.4455 330.95 67.8817L310.973 72.3022C305.517 73.5124 300.113 70.0638 298.902 64.6086C297.692 59.1535 301.141 53.7486 306.596 52.5384L327.852 47.8357C322.83 20.6605 315.845 0 315.845 0C315.845 0 303.592 2.24475 286.305 7.13554L289.309 17.2369C290.902 22.5917 287.848 28.2287 282.493 29.8213C277.138 31.4139 271.501 28.3603 269.909 23.0055L266.981 13.1487C253.117 17.8639 238.018 23.9335 224.098 31.4955L235.134 68.6279C236.727 73.9827 233.673 79.6196 228.318 81.2123C222.963 82.8049 217.326 79.7513 215.734 74.3965L206.285 42.6126C195.989 50.0617 187.273 58.5892 181.561 68.2893C158.204 107.974 157.471 150.856 179.924 164.074C191.386 170.82 206.68 168.532 222.017 159.396C221.465 177.235 226.889 191.719 238.351 198.466C257.55 209.771 287.478 195.707 310.358 166.594L282.412 172.783L282.424 172.777ZM185.618 129.65C180.407 126.584 178.67 119.868 181.736 114.658C184.803 109.447 191.518 107.71 196.729 110.776C201.939 113.843 203.676 120.558 200.61 125.769C197.544 130.979 190.828 132.716 185.618 129.65ZM291.378 104.795C294.444 99.5841 301.16 97.8472 306.37 100.913C311.581 103.98 313.318 110.695 310.251 115.906C307.185 121.116 300.47 122.853 295.259 119.787C290.049 116.721 288.312 110.005 291.378 104.795Z" fill="#009580"/>
<path d="M167.196 372.208C167.196 372.208 167.177 372.208 167.171 372.208C166.826 372.196 166.556 371.907 166.569 371.556C168.939 307.807 187.819 236.351 222.688 159.164C256.465 84.3976 293.723 29.7336 308.17 9.70014C308.37 9.41798 308.765 9.35528 309.048 9.55593C309.33 9.75657 309.393 10.1516 309.192 10.4338C295.385 29.5768 174.118 202.328 167.829 371.6C167.817 371.939 167.541 372.202 167.202 372.202L167.196 372.208Z" fill="#363E44"/>
<path d="M109.234 456.831H219.747L232.381 311.976H96.6053L109.234 456.831Z" fill="#DFA123"/>
</svg>
