<svg width="86" height="147" viewBox="0 0 86 147" fill="none" xmlns="http://www.w3.org/2000/svg">
<g clip-path="url(#clip0_98_7433)">
<path d="M68.8768 65.0242C62.7505 94.2983 60.4558 118.339 63.7539 118.721C67.0496 119.103 74.6892 95.6794 80.8155 66.4052C86.9418 37.1311 85.9385 12.7084 85.9385 12.7084C85.9385 12.7084 75.0032 35.75 68.8768 65.0242Z" fill="#076D5F"/>
<path d="M57.7385 63.4825C52.4031 94.0551 51.8742 119.207 56.5581 119.658C61.242 120.109 69.3656 95.6912 74.701 65.1185C80.0365 34.5459 75.8814 8.94281 75.8814 8.94281C75.8814 8.94281 63.074 32.9099 57.7385 63.4825Z" fill="#009580"/>
<path d="M4.83734 74.0354C11.2328 108.244 19.5405 135.65 23.391 135.251C27.2439 134.853 25.1805 106.801 18.7851 72.5929C12.3896 38.3846 0.231374 11.3768 0.231374 11.3768C0.231374 11.3768 -1.55813 39.8271 4.83734 74.0354Z" fill="#076D5F"/>
<path d="M13.9546 62.5736C17.8074 94.5061 23.7496 120.206 27.2271 119.975C30.7046 119.743 30.4001 93.668 26.5448 61.7332C22.692 29.8007 13.2723 4.33453 13.2723 4.33453C13.2723 4.33453 10.0994 30.6412 13.9546 62.576V62.5736Z" fill="#009580"/>
<path d="M22.9024 68.5701C22.1541 106.483 24.7014 137.253 28.5897 137.296C32.4779 137.338 36.2364 106.638 36.9847 68.7259C37.7308 30.8111 31.2975 6.10352e-05 31.2975 6.10352e-05C31.2975 6.10352e-05 23.6508 30.6577 22.9024 68.5701Z" fill="#076D5F"/>
<path d="M32.3034 66.3604C30.5847 95.9061 33.8663 120.008 39.6338 120.192C45.3989 120.376 51.4662 96.5765 53.1825 67.0308C54.9012 37.4852 45.8522 13.1994 45.8522 13.1994C45.8522 13.1994 34.0197 36.8147 32.3034 66.3604Z" fill="#009580"/>
<path d="M43.9822 70.1023C37.5419 106.01 36.6518 135.549 41.9967 136.078C47.3393 136.609 56.8912 107.93 63.3315 72.0217C69.7718 36.1136 65.3169 6.04614 65.3169 6.04614C65.3169 6.04614 50.4225 34.1942 43.9822 70.1023Z" fill="#076D5F"/>
<path d="M75.7283 102.08H6.41455V146.945H75.7283V102.08Z" fill="#CCE5EA"/>
</g>
<defs>
<clipPath id="clip0_98_7433">
<rect width="86" height="146.945" fill="white"/>
</clipPath>
</defs>
</svg>
