<svg width="506" height="723" viewBox="0 0 506 723" fill="none" xmlns="http://www.w3.org/2000/svg">
<path d="M103.813 448.704L97.6797 493.351C83.6696 595.365 178.408 710.82 280.68 722.824L443.03 722.677L349.651 384.097L353.773 333.064C448.022 339.734 489.315 323.276 494.248 302.532C508.079 244.402 353.773 186.592 266.196 182.949C134.482 177.473 -1.28598 294.077 0.00921631 348.348C1.29913 402.619 103.813 448.709 103.813 448.709V448.704Z" fill="#D1F5FD"/>
<path d="M243.746 175.778L213.794 184.823L219.138 253.11H253.897L233.911 282.304L295.675 363.648L328.223 277.255L302.187 252.731L325.959 250.019L313.17 182.759L286.345 175.778H243.746Z" fill="#CCE5EA"/>
<path d="M128.322 539.151L123.99 501.481L229.62 489.334L233.952 527.004L128.322 539.151Z" fill="#CCE5EA"/>
<path d="M402.348 533.754L390.439 494.22L348.324 489.376L343.991 527.047L402.348 533.754Z" fill="#CCE5EA"/>
<path d="M349.651 385.256C350.257 385.256 350.767 384.787 350.81 384.176L356.496 302.674C363.472 293.092 365.767 284.368 363.324 276.739C359.481 264.735 345.408 260.002 344.813 259.807C344.202 259.607 343.549 259.939 343.349 260.549C343.149 261.16 343.481 261.813 344.091 262.013C344.228 262.055 357.649 266.588 361.124 277.46C363.345 284.41 361.092 292.524 354.432 301.574L354.232 301.848L348.504 384.024C348.456 384.661 348.941 385.219 349.583 385.261C349.609 385.261 349.635 385.261 349.667 385.261L349.651 385.256Z" fill="#363E44"/>
<path d="M308.537 672.138C308.537 672.138 308.574 672.138 308.595 672.138C309.237 672.107 309.732 671.564 309.7 670.922C307.995 635.284 305.278 573.741 302.403 508.577C298.66 423.774 294.79 336.086 292.484 290.286C292.452 289.643 291.894 289.148 291.268 289.185C290.625 289.217 290.136 289.764 290.167 290.401C292.473 336.196 296.343 423.879 300.087 508.677C302.961 573.836 305.678 635.389 307.384 671.027C307.415 671.649 307.926 672.133 308.542 672.133L308.537 672.138Z" fill="#E6D0BE"/>
<path d="M236.581 425.164L141.738 523.161L36.9442 421.736L169.379 284.9L274.173 386.324L236.581 425.164Z" fill="#007F95"/>
<path d="M230.38 360.2L196.889 327.79L212.907 311.238L246.399 343.648L230.38 360.2Z" fill="#363E44"/>
<path d="M229.71 340.577C229.773 340.577 229.842 340.577 229.905 340.577C233.038 340.524 235.97 339.255 238.15 337.002C242.652 332.347 242.531 324.903 237.876 320.401C233.222 315.9 225.777 316.021 221.276 320.675C216.774 325.324 216.895 332.774 221.55 337.275C223.756 339.413 226.646 340.582 229.71 340.582V340.577ZM229.716 319.422C232.074 319.422 234.438 320.301 236.265 322.07C239.998 325.682 240.093 331.658 236.481 335.391C234.733 337.196 232.385 338.218 229.868 338.26C227.357 338.276 224.972 337.36 223.166 335.612C221.36 333.864 220.339 331.516 220.297 328.999C220.254 326.482 221.197 324.102 222.945 322.297C224.788 320.391 227.252 319.432 229.716 319.432V319.422Z" fill="#363E44"/>
<path d="M152.915 379.79C166.793 389.836 195.129 410.654 197.53 412.533C210.303 422.537 238.249 443.186 233.337 453.174C231.705 456.496 227.719 458.512 223.302 458.765C224.655 463.319 223.213 468.189 219.69 471.059C215.057 474.834 209.345 473.107 208.929 472.97C210.429 476.329 210.177 480.141 208.144 482.805C205.338 486.474 199.478 487.501 194.734 484.537C194.64 485.574 194.176 489.265 191.138 491.945C187.774 494.914 182.614 495.451 178.076 493.277C166.719 484.395 128.985 461.798 105.54 447.845C105.061 447.561 151.767 378.953 152.92 379.79H152.915Z" fill="#84524D"/>
<path d="M212.024 444.165C212.34 444.165 212.661 444.033 212.888 443.78L217.647 438.463C218.074 437.984 218.037 437.252 217.558 436.825C217.079 436.399 216.347 436.436 215.92 436.915L211.161 442.232C210.734 442.712 210.771 443.443 211.25 443.87C211.471 444.07 211.75 444.165 212.024 444.165Z" fill="#363E44"/>
<path d="M199.957 457.68C200.278 457.68 200.594 457.548 200.821 457.296L205.58 451.978C206.007 451.499 205.97 450.767 205.491 450.341C205.011 449.914 204.28 449.951 203.853 450.43L199.094 455.748C198.667 456.227 198.704 456.959 199.183 457.385C199.404 457.585 199.683 457.68 199.957 457.68Z" fill="#363E44"/>
<path d="M187.826 471.579C188.148 471.579 188.463 471.448 188.69 471.195L193.449 465.877C193.876 465.398 193.839 464.666 193.36 464.24C192.881 463.814 192.149 463.856 191.723 464.329L186.963 469.647C186.537 470.126 186.573 470.858 187.052 471.285C187.274 471.485 187.553 471.579 187.826 471.579Z" fill="#363E44"/>
<path d="M176.565 483.958C176.886 483.958 177.202 483.826 177.428 483.573L182.188 478.256C182.614 477.776 182.577 477.045 182.098 476.618C181.619 476.192 180.887 476.234 180.461 476.708L175.701 482.025C175.275 482.504 175.312 483.236 175.791 483.663C176.012 483.863 176.291 483.958 176.565 483.958Z" fill="#363E44"/>
<path d="M44.4138 413.248L106.1 336.69L163.12 382.633L101.433 459.191L44.4138 413.248Z" fill="#D1F5FD"/>
<path d="M113.575 343.62C113.912 343.62 114.249 343.472 114.475 343.188C114.88 342.688 114.801 341.956 114.301 341.556L78.1203 312.267C77.6201 311.861 76.8936 311.94 76.4882 312.441C76.0828 312.941 76.1617 313.673 76.6619 314.073L112.843 343.362C113.059 343.536 113.317 343.62 113.575 343.62Z" fill="#363E44"/>
<path d="M101.408 464.312L71.882 440.521L138.593 357.727L168.119 381.518L101.408 464.312Z" fill="#CCE5EA"/>
<path d="M411.446 227.08C409.367 189.456 404.576 104.348 404.017 95.6873C402.964 79.4975 398.663 6.74082 410.083 5.97213C417.375 5.48249 420.281 38.8624 421.318 45.6595C421.971 40.3945 423.256 29.6329 430.421 29.6329C441.236 29.6329 440.156 46.5124 440.335 46.9126C440.225 41.0158 442.978 31.8811 449.286 32.2759C457.336 32.7814 459.052 42.4584 459.573 49.7925C460.411 49.1712 459.968 37.0565 467.171 37.0565C474.373 37.0565 476.2 50.2611 477.19 56.3948C480.491 69.1202 483.276 92.96 487.804 119.864C498.439 183.049 500.372 244.407 500.372 244.407C500.372 244.407 425.799 261.144 411.452 227.091L411.446 227.08Z" fill="#84524D"/>
<path d="M450.334 71.4789C450.391 71.4789 450.455 71.4789 450.513 71.4789C454.309 71.3631 457.252 67.0669 458.863 61.8387C459.21 62.5074 459.621 63.1603 460.105 63.7868C462.064 66.335 464.717 67.9356 467.197 68.083C469.087 68.183 471.099 67.2775 472.826 65.5084C475.432 62.8444 476.995 58.7271 476.716 55.2681C476.664 54.631 476.111 54.1414 475.469 54.2045C474.832 54.2572 474.352 54.8153 474.405 55.4523C474.626 58.2375 473.299 61.7019 471.167 63.8816C469.914 65.1609 468.561 65.8243 467.329 65.7611C465.534 65.6558 463.47 64.3554 461.943 62.3705C460.6 60.6225 459.9 58.6692 459.953 56.8633C460.005 56.4737 460.053 56.0789 460.09 55.6893C460.153 55.0733 459.721 54.5204 459.11 54.4257C458.505 54.3309 457.926 54.7363 457.799 55.3418C457.71 55.7735 457.657 56.2157 457.636 56.658C456.688 63.4498 453.514 69.057 450.434 69.1518C448.917 69.2044 447.148 68.2831 445.579 66.6457C442.705 63.6394 441.162 58.9325 441.404 53.9729C441.42 53.7833 441.431 53.5938 441.441 53.399C441.473 52.7619 440.994 52.2196 440.356 52.1775C439.719 52.1301 439.172 52.6145 439.124 53.2463C439.109 53.4464 439.098 53.6464 439.088 53.8412C438.377 63.4077 432.87 67.2669 429.895 67.2669C429.848 67.2669 429.805 67.2669 429.763 67.2669C428.779 67.2301 427.215 66.6193 425.794 65.0293C423.493 62.4547 422.413 58.3323 422.766 53.42C422.814 52.783 422.329 52.2249 421.692 52.1775C421.05 52.1512 420.497 52.6145 420.45 53.2516C419.944 60.3593 422.134 64.4186 424.061 66.5772C425.683 68.3884 427.778 69.5151 429.674 69.5888C432.922 69.7415 437.466 67.0089 439.862 61.0069C440.657 63.8026 442.025 66.2929 443.9 68.2515C445.869 70.3101 448.201 71.4789 450.323 71.4789H450.334Z" fill="#363E44"/>
<path d="M413.578 73.3427C417.095 61.5439 423.613 41.895 428.431 42.5373C433.938 43.2692 434.617 70.1679 434.717 81.7351L413.578 73.3427Z" fill="#84524D"/>
<path d="M434.718 82.8932H434.728C435.37 82.888 435.886 82.3615 435.881 81.7244C435.549 42.3161 430.495 41.6422 428.589 41.3894C426.831 41.1525 422.161 40.5365 412.473 73.0109C412.289 73.6269 412.642 74.2692 413.252 74.4535C413.868 74.6325 414.511 74.285 414.695 73.6743C423.556 43.9693 427.799 43.6218 428.279 43.6902C428.784 43.7587 433.254 45.4013 433.554 81.7455C433.559 82.3825 434.081 82.8985 434.712 82.8985L434.718 82.8932Z" fill="#363E44"/>
<path d="M415.969 281.988L399.152 133.5L502.604 141.071C502.604 141.071 517.014 307.96 482.602 316.079C445.595 324.808 415.969 281.988 415.969 281.988Z" fill="#D1F5FD"/>
<path d="M415.964 283.152C416.006 283.152 416.054 283.152 416.096 283.147C416.733 283.073 417.191 282.499 417.117 281.862L409.878 217.919C409.804 217.282 409.23 216.824 408.593 216.897C407.956 216.971 407.498 217.545 407.572 218.182L414.811 282.125C414.879 282.72 415.38 283.157 415.964 283.157V283.152Z" fill="#363E44"/>
<path d="M399.953 171.319L396.931 132.342L502.978 140.103L506 177.921L399.953 171.319Z" fill="#CCE5EA"/>
<path d="M62.4155 259.417C62.6313 259.417 62.8524 259.354 63.0473 259.228C67.1276 256.569 71.208 253.889 75.2936 251.214C117.892 223.257 161.945 194.353 203.785 191.088C204.422 191.041 204.901 190.478 204.854 189.841C204.807 189.204 204.243 188.735 203.606 188.772C161.171 192.078 116.866 221.151 74.0195 249.272C69.9391 251.946 65.8588 254.626 61.7837 257.285C61.2467 257.632 61.094 258.354 61.4467 258.891C61.6678 259.233 62.0416 259.417 62.4207 259.417H62.4155Z" fill="#363E44"/>
<path d="M192.807 82.8402C171.687 79.3286 157.413 59.3609 160.924 38.241C164.436 17.121 184.404 2.84658 205.524 6.35812C226.644 9.86965 240.918 29.8374 237.406 50.9573C233.895 72.0773 213.927 86.3517 192.807 82.8402Z" fill="#363E44"/>
<path d="M192.06 91.854C214.078 91.854 231.984 73.9425 231.984 51.9297C231.984 29.9168 214.073 12.0054 192.06 12.0054C170.047 12.0054 152.136 29.9168 152.136 51.9297C152.136 73.9425 170.047 91.854 192.06 91.854ZM192.06 14.322C212.794 14.322 229.663 31.1909 229.663 51.9244C229.663 72.6579 212.794 89.5268 192.06 89.5268C171.327 89.5268 154.458 72.6579 154.458 51.9244C154.458 31.1909 171.327 14.322 192.06 14.322Z" fill="#363E44"/>
<path d="M180.162 99.7883C202.18 99.7883 220.086 81.8769 220.086 59.864C220.086 37.8511 202.174 19.9397 180.162 19.9397C158.149 19.9397 140.237 37.8511 140.237 59.864C140.237 81.8769 158.149 99.7883 180.162 99.7883ZM180.162 22.2563C200.895 22.2563 217.764 39.1253 217.764 59.8587C217.764 80.5922 200.895 97.4612 180.162 97.4612C159.428 97.4612 142.559 80.5922 142.559 59.8587C142.559 39.1253 159.428 22.2563 180.162 22.2563Z" fill="#363E44"/>
<path d="M243.952 55.1416C245.816 54.1571 263.796 45.0013 280.222 53.1199C292.447 59.1641 298.434 70.905 305.499 92.1123C313.818 117.089 315.303 133.184 310.28 140.85C302.34 152.965 262.263 149.606 241.103 133.5C225.83 121.875 218.759 101.731 222.044 82.6827C225.319 63.6867 242.762 55.7682 243.952 55.1416Z" fill="#84524D"/>
<path d="M290.336 185.002L291.321 290.344L237.96 183.68V104.685H290.336V185.002Z" fill="#84524D"/>
<path d="M289.674 150.011C290.2 150.011 290.721 150.006 291.237 149.99C291.88 149.974 292.385 149.442 292.369 148.8C292.353 148.158 291.811 147.61 291.179 147.668C278.691 147.979 262.843 144.246 250.802 138.133C250.228 137.844 249.533 138.07 249.244 138.644C248.954 139.218 249.181 139.913 249.755 140.202C261.622 146.225 277.101 150.006 289.684 150.006L289.674 150.011Z" fill="#363E44"/>
<path d="M260.548 99.6518C260.548 99.6518 266.36 94.9396 274.168 93.4601C275.826 93.1442 275.216 107.028 273.494 106.575C265.934 104.58 260.548 99.6518 260.548 99.6518Z" fill="white"/>
<path d="M279.38 93.0332C277.58 92.9806 275.837 93.1543 274.178 93.4702C271.609 97.5453 271.488 102.505 273.489 106.575C275.21 107.028 277.043 107.333 278.949 107.391C289.231 107.701 297.787 100.773 297.787 100.773C297.787 100.773 289.668 93.3439 279.38 93.0332Z" fill="#373E44"/>
<path d="M300.234 128.046C300.234 128.046 300.282 128.046 300.303 128.046C300.94 128.009 301.43 127.461 301.393 126.824C301.314 125.46 300.535 122.817 298.102 121.559C295.685 120.311 292.627 120.88 290.663 122.944C290.22 123.407 290.241 124.144 290.705 124.586C291.168 125.029 291.905 125.013 292.347 124.544C293.606 123.223 295.533 122.844 297.039 123.623C298.913 124.592 299.071 126.861 299.076 126.956C299.113 127.572 299.624 128.051 300.234 128.051V128.046Z" fill="#363E44"/>
<path d="M307.916 111.013C308.242 111.013 308.569 110.876 308.801 110.608C310.943 108.096 311.675 106.064 311.033 104.384C310.606 103.263 309.717 102.742 308.853 102.236C308.263 101.889 307.6 101.499 306.905 100.846C305.878 99.8776 305.094 98.6298 304.583 97.1293C304.378 96.5239 303.715 96.1974 303.109 96.408C302.504 96.6134 302.177 97.2767 302.388 97.8822C303.025 99.7408 304.009 101.304 305.315 102.536C306.2 103.368 307.021 103.853 307.679 104.237C308.442 104.685 308.743 104.885 308.864 105.211C309.153 105.974 308.49 107.391 307.031 109.097C306.616 109.586 306.673 110.318 307.163 110.734C307.384 110.918 307.647 111.013 307.916 111.013Z" fill="#363E44"/>
<path d="M266.054 64.2077L281.06 79.2129C289.363 75.5485 297.665 71.8893 305.968 68.2302C303.915 64.5341 300.193 58.9164 293.906 53.8726C282.45 44.6799 270.151 43.5269 266.628 43.2478C246.748 41.6631 225.33 52.1088 216.379 69.6675C215.932 70.5467 213.931 74.5481 212.647 80.5818C207.124 106.496 226.846 139.655 236.765 139.16C239.861 139.007 242.72 132.205 249.975 92.9281C258.447 89.19 266.918 85.4571 275.395 81.719L266.06 64.213L266.054 64.2077Z" fill="#363E44"/>
<path d="M239.891 123.814C233.122 117.652 231.855 108.02 237.061 102.301C242.268 96.5807 251.976 96.9389 258.746 103.101C265.515 109.262 266.782 118.894 261.575 124.614C256.369 130.334 246.66 129.976 239.891 123.814Z" fill="#84524D"/>
<path d="M245.885 120.901C246.269 120.901 246.643 120.711 246.864 120.364C247.206 119.822 247.048 119.106 246.506 118.763C246.085 118.495 245.685 118.189 245.311 117.847C242.347 115.152 241.741 110.982 243.952 108.555C244.479 107.981 245.121 107.544 245.869 107.254C246.469 107.022 246.764 106.354 246.532 105.754C246.301 105.153 245.627 104.859 245.032 105.09C243.947 105.511 243.005 106.148 242.236 106.996C239.161 110.371 239.841 116.01 243.747 119.569C244.216 119.995 244.726 120.385 245.258 120.727C245.453 120.848 245.669 120.906 245.879 120.906L245.885 120.901Z" fill="#363E44"/>
</svg>
